<?xml version="1.0" encoding="UTF-8"?>
<svg width="192px" height="326px" viewBox="0 0 192 326" version="1.1" xmlns="http://www.w3.org/2000/svg" xmlns:xlink="http://www.w3.org/1999/xlink">
    <title>A43B9CC7-3166-44C5-A631-1722D98FD929</title>
    <defs>
        <polygon id="path-1" points="0 0 56 0 56 61 0 61"></polygon>
        <polygon id="path-3" points="0 0 4 0 4 29 0 29"></polygon>
        <polygon id="path-5" points="0 0 64 0 64 64 0 64"></polygon>
        <polygon id="path-7" points="0 64 64 64 64 0 0 0"></polygon>
    </defs>
    <g id="Concept-1---Approved" stroke="none" stroke-width="1" fill="none" fill-rule="evenodd">
        <g id="Saving...-[Complete]" transform="translate(-624.000000, -534.000000)">
            <g id="Modal" transform="translate(480.000000, 188.000000)">
                <g id="Illustration---Ethernet" transform="translate(144.000000, 346.000000)">
                    <path d="M96,2 C121.957383,2 145.457383,12.5213084 162.468037,29.5319626 C179.478692,46.5426168 190,70.0426168 190,96 L190,96 L190,324 L2,324 L2,96 C2,70.0426168 12.5213084,46.5426168 29.5319626,29.5319626 C46.5426168,12.5213084 70.0426168,2 96,2 Z" id="background" stroke="#F9F9F9" stroke-width="4" fill="#FFFFFF"></path>
                    <g id="Illustration" transform="translate(64.000000, 38.000000)">
                        <g id="Ethernet-cable" transform="translate(4.000000, 160.000000)">
                            <path d="M50.4351804,35.4394608 C50.0860855,35.7859102 49.6039846,36 49.0712322,36 C48.0057274,36 47.1424645,35.1432791 47.1424645,34.0858489 L47.1410069,3.82830221 L8.85753555,3.82974876 L8.85753555,34.0858489 C8.85753555,35.1432791 7.99463699,36 6.92876777,36 C5.86326296,36 5,35.1432791 5,34.0858489 L5,1.91559766 C5,0.858167499 5.86326296,0.00144655288 6.92876777,0.00144655288 L49.0697746,0 C50.1356438,0 50.9985424,0.856720946 50.9985424,1.9141511 L51,34.0858489 C51,34.614564 50.7842754,35.0930113 50.4351804,35.4394608" id="Fill-1" fill="#4F5255"></path>
                            <path d="M43.5389093,19.5727874 C42.6377553,20.4535773 41.3946439,21 40.0231134,21 L16.9768866,21 C14.2334556,21 12,18.8161187 12,16.1335815 L12,1.91645988 C12,0.858354012 12.8763584,0.00108560794 13.9588534,0.00108560794 C15.0409784,0.00108560794 15.9177068,0.858354012 15.9177068,1.91645988 L15.9177068,16.1335815 C15.9177068,16.7049731 16.3925243,17.1692514 16.9768866,17.1692514 L40.0231134,17.1692514 C40.6074757,17.1692514 41.0793325,16.7049731 41.0822932,16.1310484 L41.0808128,1.91537428 C41.0808128,0.856906534 41.9575413,0 43.0396663,0 C44.1217912,0 44.9985197,0.856906534 44.9985197,1.91537428 L45,16.1335815 C44.9985197,17.4761166 44.4396932,18.6919975 43.5389093,19.5727874" id="Fill-3" fill="#4F5255"></path>
                            <path d="M23.9212238,31.2698262 L23.9212238,52.7301738 C23.9227049,53.5222942 24.5817963,54.1693071 25.3938118,54.1693071 L30.6087802,54.1678597 C31.4182037,54.1678597 32.0802573,53.5262747 32.0802573,52.7301738 L32.0802573,31.2698262 C32.0802573,30.4762583 31.4207956,29.8321403 30.6087802,29.8321403 L25.3938118,29.8306929 C24.5817963,29.8306929 23.9212238,30.4762583 23.9212238,31.2698262 M34.4189211,56.4548405 C33.4428733,57.4087141 32.0950684,57.9985525 30.6087802,57.9985525 L25.3938118,58 C22.4216056,58 20.0029622,55.636304 20,52.7312594 L20.0014811,31.2698262 L20,31.2683787 C20.0081461,28.3611629 22.4267895,26 25.3938118,26 L30.6087802,26.0014475 C33.5809863,26.0014475 36,28.3651434 36,31.2698262 L35.9996297,52.7301738 C35.9996297,54.1823342 35.3960797,55.4998813 34.4189211,56.4548405" id="Fill-5" fill="#4F5255"></path>
                            <g id="Group-9" transform="translate(0.000000, 34.000000)">
                                <mask id="mask-2" fill="white">
                                    <use xlink:href="#path-1"></use>
                                </mask>
                                <g id="Clip-8"></g>
                                <path d="M42.4013105,60.4348821 C42.0438983,60.7898082 41.5553863,60.9985454 41.0306203,60.9985454 L14.9695628,61 C14.2089634,61 13.5168436,60.5570698 13.2037418,59.8686733 L0.172480652,31.2956743 C0.0585921535,31.0469352 0,30.7756495 0,30.5018183 L0,1.92481907 C0,1.41461292 0.203241532,0.925135029 0.567245286,0.563663245 C0.93161524,0.202191461 1.42415553,0 1.93830168,0 L13.6120559,0.00145461483 C14.6828275,0.00145461483 15.5503575,0.862950245 15.5503575,1.92627368 C15.5503575,2.98959712 14.6828275,3.85109275 13.6120559,3.85109275 L3.87660336,3.84963813 L3.87623715,30.087253 L16.2197729,57.1503619 L39.7804102,57.1489073 L52.1235797,30.0857984 L52.1235797,3.85109275 L42.387761,3.84963813 C41.3169894,3.84963813 40.4494594,2.98850616 40.4494594,1.92481907 C40.4494594,0.86149563 41.3169894,0 42.387761,0 L54.0618814,0.00145461483 C55.132653,0.00145461483 56.0001831,0.862950245 56.0001831,1.92627368 L56.0001831,30.5007273 C56.0001831,30.7745585 55.9412247,31.0458442 55.8273362,31.2942197 L42.7960751,59.8672187 C42.6982995,60.0839563 42.5631713,60.2741472 42.4013105,60.4348821" id="Fill-7" fill="#4F5255" mask="url(#mask-2)"></path>
                            </g>
                            <path d="M38.4245762,100.443065 C38.0689271,100.787287 37.577775,101 37.0350204,101 L19.9664645,101 C18.8805841,101 18.001485,100.148788 18.001485,99.0981577 L18,91.9018423 C18,90.8512119 18.8794704,90 19.9649796,90 C21.0504888,90 21.9299592,90.8512119 21.9299592,91.9018423 L21.9314441,97.1963154 L35.0700408,97.1963154 L35.0700408,91.9032795 C35.0700408,90.8522898 35.9495112,90.0014373 37.0350204,90.0014373 C38.1205296,90.0014373 39,90.8522898 39,91.9032795 L39,99.0981577 C39,99.6234729 38.7802252,100.098844 38.4245762,100.443065" id="Fill-10" fill="#4F5255"></path>
                            <path d="M23.4143208,126.431272 C23.0523333,126.782783 22.5524277,127 22,127 C20.8951445,127 20,126.130763 20,125.057885 L20,99.942115 C20,98.8688699 20.8951445,98 22,98 C23.1048555,98 24,98.8688699 24,99.942115 L24,125.057885 C24,125.594324 23.7763083,126.079761 23.4143208,126.431272" id="Fill-12" fill="#4F5255"></path>
                            <g id="Group-16" transform="translate(33.000000, 99.000000)">
                                <mask id="mask-4" fill="white">
                                    <use xlink:href="#path-3"></use>
                                </mask>
                                <g id="Clip-15"></g>
                                <path d="M3.4143208,28.4400643 C3.05233327,28.786163 2.55242773,29.0000361 2,29.0000361 C0.895144531,29.0000361 0,28.1441825 0,27.0878228 L0,1.91221336 C0,0.855853667 0.895144531,0 2,0 C3.10485547,0 4,0.855853667 4,1.91221336 L4,27.0878228 C4,27.6160026 3.77630833,28.0939656 3.4143208,28.4400643" id="Fill-14" fill="#4F5255" mask="url(#mask-4)"></path>
                            </g>
                        </g>
                        <path id="Line" d="M32.5,86.5 C33.2796961,86.5 33.9204487,87.0948881 33.9931334,87.85554 L34,88 L34,118.055 L40.8666292,118.055556 C41.450843,118.055556 41.9318163,118.497581 41.9933495,119.065433 L42,119.188926 C42,119.364877 41.9590342,119.538411 41.8803469,119.695785 L41.8803469,119.695785 L33.5138418,136.428795 C33.2339114,136.988656 32.5531261,137.215585 31.9932653,136.935654 C31.773927,136.825985 31.5960756,136.648134 31.4864064,136.428795 L31.4864064,136.428795 L23.1199014,119.695785 C22.839971,119.135924 23.0668994,118.455139 23.6267603,118.175209 C23.784135,118.096521 23.9576688,118.055556 24.1336191,118.055556 L24.1336191,118.055556 L31,118.055 L31,88 C31,87.1715729 31.6715729,86.5 32.5,86.5 Z" fill="#EE0000" fill-rule="nonzero"></path>
                        <g id="Ethernet-port">
                            <g id="Group-3">
                                <mask id="mask-6" fill="white">
                                    <use xlink:href="#path-5"></use>
                                </mask>
                                <g id="Clip-2"></g>
                                <path d="M60.2352928,56.2426716 C60.2352928,58.4477011 58.4477219,60.2352714 56.2426916,60.2352714 L7.75722897,60.2352714 C5.55219866,60.2352714 3.76462775,58.4477011 3.76462775,56.2426716 L3.76462775,7.75733975 C3.76462775,5.55219669 5.55219866,3.76462641 7.75722897,3.76462641 L56.2426916,3.76462641 C58.4477219,3.76462641 60.2352928,5.55219669 60.2352928,7.75733975 L60.2352928,56.2426716 Z M56.2426916,0 L7.75722897,0 C3.47988796,0 0,3.47988673 0,7.75733975 L0,56.2426716 C0,60.5201246 3.47988796,64.0000114 7.75722897,64.0000114 L56.2426916,64.0000114 C60.5200326,64.0000114 64.0000341,60.5201246 64.0000341,56.2426716 L64.0000341,7.75733975 C64.0000341,3.47988673 60.5200326,0 56.2426916,0 L56.2426916,0 Z" id="Fill-1" fill="#4F5255" mask="url(#mask-6)"></path>
                            </g>
                            <mask id="mask-8" fill="white">
                                <use xlink:href="#path-7"></use>
                            </mask>
                            <g id="Clip-5"></g>
                            <path d="M47.4606515,23.7209167 L50.9228671,23.7209167 L50.9228671,14.7907212 L47.4606515,14.7907212 L47.4606515,23.7209167 Z M41.730084,23.7209167 L45.1922995,23.7209167 L45.1922995,14.7907212 L41.730084,14.7907212 L41.730084,23.7209167 Z M35.9995165,23.7209167 L39.461732,23.7209167 L39.461732,14.7907212 L35.9995165,14.7907212 L35.9995165,23.7209167 Z M30.268949,23.7209167 L33.7311645,23.7209167 L33.7311645,14.7907212 L30.268949,14.7907212 L30.268949,23.7209167 Z M24.538268,23.7209167 L28.0004835,23.7209167 L28.0004835,14.7907212 L24.538268,14.7907212 L24.538268,23.7209167 Z M18.8077005,23.7209167 L22.269916,23.7209167 L22.269916,14.7907212 L18.8077005,14.7907212 L18.8077005,23.7209167 Z M13.0771329,23.7209167 L16.5393485,23.7209167 L16.5393485,14.7907212 L13.0771329,14.7907212 L13.0771329,23.7209167 Z M52.8675902,12 L11.1324098,12 C9.95477308,12 9,12.9440425 9,14.1086945 L9,39.7517975 C9,40.9163373 9.95477308,41.860492 11.1324098,41.860492 L16.9959692,41.860492 L16.9959692,45.8912718 C16.9959692,47.0559238 17.9506288,47.9999663 19.1283789,47.9999663 L24.5214738,47.9999663 L24.5214738,49.8913055 C24.5214738,51.0558453 25.4762469,52 26.6538835,52 L37.2520462,52 C38.4297964,52 39.384456,51.0558453 39.384456,49.8913055 L39.384456,47.9999663 L44.7775508,47.9999663 C45.955301,47.9999663 46.9099606,47.0559238 46.9099606,45.8912718 L46.9099606,41.860492 L52.8675902,41.860492 C54.0452269,41.860492 55,40.9163373 55,39.7517975 L55,14.1086945 C55,12.9440425 54.0452269,12 52.8675902,12 L52.8675902,12 Z" id="Fill-4" fill="#4F5255" mask="url(#mask-8)"></path>
                        </g>
                    </g>
                </g>
            </g>
        </g>
    </g>
</svg>
