<svg xmlns="http://www.w3.org/2000/svg" xmlns:xlink="http://www.w3.org/1999/xlink" width="342" height="322" viewBox="0 0 342 322"><defs><rect id="a" width="114.015" height="154.904" x="0" y="0" rx="7"/><mask id="b" width="118.015" height="158.904" x="-2" y="-2" maskContentUnits="userSpaceOnUse" maskUnits="objectBoundingBox"><rect width="118.015" height="158.904" x="-2" y="-2" fill="#fff"/><use xlink:href="#a"/></mask></defs><g fill="none" fill-rule="evenodd" transform="translate(1.792 1)"><g transform="translate(56.944)"><g fill-rule="nonzero"><path fill="#ADDDDD" d="M259.045766,108.585386 C259.045766,116.185917 255.97099,123.474832 250.498472,128.84717 C245.025955,134.219508 237.604438,137.234743 229.868081,137.228945 L29.9831429,137.228945 C19.3709017,137.516865 9.43692572,132.119197 4.04439674,123.135018 C-1.34813225,114.150838 -1.34813225,102.998085 4.04439674,94.0139053 C9.43692572,85.0297256 19.3709017,79.6320576 29.9831429,79.9199775 L36.6548698,79.9199775 C31.7888979,62.899485 35.3159776,44.6224687 46.1855351,30.5329094 C57.0550927,16.44335 74.0129181,8.16700533 92.0079639,8.16904256 L109.020867,8.16904256 C130.485175,8.15152763 150.165924,19.9009975 160.037339,38.6260585 C164.895341,36.1776582 170.278195,34.9042605 175.738136,34.9117907 L180.185954,34.9117907 C189.357614,34.9117907 198.153626,38.49125 204.638969,44.8627284 C211.124311,51.2342068 214.767739,59.875786 214.767739,68.8864171 L214.767739,70.568762 C214.768766,73.7316981 214.319636,76.8792411 213.433393,79.9199775 L229.979276,79.9199775 C246.045143,79.9921008 259.033698,92.80143 259.045766,108.585386 L259.045766,108.585386 Z"/><path fill="#FFF" stroke="#ADDDDD" d="M268.867407,100.416343 C268.867407,108.016875 265.792631,115.305789 260.320113,120.678127 C254.847595,126.050465 247.426079,129.0657 239.689721,129.059903 L39.8047834,129.059903 C29.1925421,129.347823 19.2585661,123.950155 13.8660372,114.965975 C8.47350818,105.981795 8.47350818,94.8290424 13.8660372,85.8448627 C19.2585661,76.860683 29.1925421,71.4630151 39.8047834,71.7509349 L46.4765103,71.7509349 C41.6105383,54.7304424 45.137618,36.4534261 56.0071756,22.3638668 C66.8767331,8.27430746 83.8345585,-0.00203723861 101.829604,0 L118.842508,0 C140.306815,-0.0175149362 159.987564,11.731955 169.85898,30.4570159 C174.716982,28.0086157 180.099835,26.7352179 185.559777,26.7427481 L190.007595,26.7427481 C199.179254,26.7427481 207.975266,30.3222074 214.460609,36.6936858 C220.945952,43.0651642 224.589379,51.7067434 224.589379,60.7173746 L224.589379,62.3997194 C224.590406,65.5626555 224.141276,68.7101985 223.255034,71.7509349 L239.800916,71.7509349 C255.866783,71.8230582 268.855338,84.6323874 268.867407,100.416343 L268.867407,100.416343 Z"/></g><path fill="#ADDDDD" d="M128.65575,52.4287316 C135.888854,52.4287316 141.752444,58.3985447 141.752444,65.7626824 C141.752444,70.8279927 138.978281,75.2336247 134.892446,77.4905947 L134.892271,90.6053341 C134.892271,93.3667578 132.653695,95.6053341 129.892271,95.6053341 L127.41923,95.6053341 C124.657806,95.6053341 122.41923,93.3667578 122.41923,90.6053341 L122.419055,77.4905947 C118.33322,75.2336247 115.559057,70.8279927 115.559057,65.7626824 C115.559057,58.3985447 121.422647,52.4287316 128.65575,52.4287316 Z"/></g><path fill="#F56D6D" fill-rule="nonzero" d="M126.064077,241.306587 L126.270926,243.295861 C124.658374,243.463538 122.96139,243.547771 121.176829,243.547771 L121.176829,241.547771 C122.893711,241.547771 124.52177,241.466959 126.064077,241.306587 Z M112.197679,241.217166 C113.843138,241.338787 115.493986,241.426969 117.149547,241.481518 L117.083685,243.480434 C115.400905,243.424988 113.722864,243.335353 112.050254,243.211725 Z M102.460436,240.09794 C104.091517,240.353195 105.729903,240.575059 107.37486,240.763282 L107.147495,242.750316 C105.475168,242.558961 103.80949,242.333401 102.151211,242.07389 Z M135.440411,238.926749 L136.260263,240.750986 C134.743161,241.432805 133.110933,241.99072 131.358106,242.42392 L130.878256,240.482337 C132.516318,240.0775 134.034759,239.558479 135.440411,238.926749 Z M92.7381554,238.160563 C94.3430413,238.550282 95.9572952,238.906971 97.580131,239.230315 L97.1893202,241.19176 C95.5393029,240.863 93.897997,240.500334 92.2662055,240.104081 Z M83.184011,235.413867 C84.7511476,235.936097 86.3298163,236.425965 87.9191874,236.883083 L87.3663777,238.805166 C85.7503277,238.340374 84.1451587,237.842284 82.5517169,237.311287 Z M143.070064,233.240044 L144.590487,234.539396 C143.446637,235.877861 142.178344,237.068548 140.776829,238.111255 L139.583014,236.506634 C140.863382,235.55406 142.02239,234.465971 143.070064,233.240044 Z M73.8890524,231.879249 C75.4074156,232.530308 76.9395368,233.149959 78.4845549,233.73774 L77.7734073,235.607036 C76.2024832,235.0094 74.6446797,234.379362 73.1008737,233.717393 Z M64.9300821,227.588617 C66.3899531,228.363844 67.8658466,229.108852 69.356883,229.8231 L68.4928461,231.626829 C66.976886,230.900642 65.4763332,230.143187 63.9920823,229.355013 Z M147.852251,224.883312 L149.72141,225.59482 C149.082398,227.273527 148.363151,228.828431 147.554481,230.26586 L145.81139,229.285229 C146.569742,227.937244 147.247461,226.472118 147.852251,224.883312 Z M56.3513983,222.566861 C57.7425693,223.460486 59.1520181,224.325332 60.5788626,225.160782 L59.5683031,226.886693 C58.1177001,226.037333 56.684794,225.158093 55.270481,224.249602 Z M48.2255962,216.860714 C49.5382704,217.865693 50.8714178,218.843564 52.2241709,219.793638 L51.0746921,221.430311 C49.6994958,220.464475 48.3442395,219.470386 47.0098038,218.448747 Z M150.39604,215.402126 L152.36283,215.765082 C152.039571,217.516763 151.67728,219.162389 151.268912,220.7173 L149.334512,220.209267 C149.72975,218.70435 150.081448,217.106839 150.39604,215.402126 Z M40.5943348,210.50396 C41.8196932,211.613049 43.0676398,212.696884 44.3373378,213.754712 L43.0571502,215.291305 C41.7664413,214.215972 40.4978485,213.114206 39.2522214,211.986772 Z M151.726011,205.590927 L153.716247,205.788307 C153.539727,207.568216 153.351296,209.219817 153.143512,210.78607 L151.160882,210.523048 C151.365599,208.979918 151.551562,207.349951 151.726011,205.590927 Z M33.5152389,203.547388 C34.6453461,204.752967 35.8000517,205.935284 36.9785639,207.093532 L35.5766669,208.519955 C34.3786729,207.34256 33.2048794,206.1407 32.0560903,204.915191 Z M27.0689865,196.082605 C28.0973034,197.376556 29.1521007,198.649318 30.2326427,199.900045 L28.7192174,201.207541 C27.620801,199.936124 26.5485519,198.642303 25.5032173,197.326939 Z M152.537529,195.635153 L154.532441,195.777716 C154.386211,197.82395 154.27539,199.31617 154.159509,200.771607 L152.165819,200.612871 C152.281187,199.163866 152.391651,197.676454 152.537529,195.635153 Z M21.2117807,188.055032 C22.1301133,189.429155 23.0766426,190.784274 24.0507002,192.119515 L22.4349409,193.29821 C21.4447345,191.940832 20.4825071,190.563239 19.5489382,189.166318 Z M153.284711,185.619982 L155.277728,185.786966 C155.150538,187.305035 155.02805,188.888892 154.890952,190.764056 L152.896276,190.61822 C153.03385,188.736546 153.156858,187.145958 153.284711,185.619982 Z M16.0315492,179.5641 C16.8335263,181.009945 17.6652444,182.439009 18.5261083,183.850408 L16.8186529,184.891847 C15.9434699,183.456972 15.0979113,182.004127 14.2825827,180.534211 Z M154.332305,175.622842 L156.315132,175.884377 C156.106676,177.464783 155.916082,179.101948 155.738272,180.823522 L153.748855,180.618048 C153.928527,178.878444 154.121283,177.222709 154.332305,175.622842 Z M11.580457,170.692769 C12.2596084,172.198984 12.9697515,173.690687 13.7103697,175.167004 L11.922708,176.063813 C11.1697273,174.562852 10.4477254,173.046239 9.75722831,171.514862 Z M156.040423,165.700543 L157.993699,166.130322 C157.649083,167.696548 157.335852,169.313559 157.050226,170.990667 L155.078615,170.654884 C155.369465,168.947105 155.68875,167.298837 156.040423,165.700543 Z M7.89262484,161.519513 C8.44547277,163.078122 9.03040514,164.62442 9.64698162,166.157553 L7.79141851,166.9038 C7.16452165,165.345006 6.56979612,163.772819 6.00769047,162.18811 Z M158.805425,155.995611 L160.686592,156.674735 C160.141247,158.185336 159.641495,159.748812 159.183838,161.369179 L157.259134,160.825566 C157.729434,159.160436 158.243615,157.551819 158.805425,155.995611 Z M4.96051185,152.013465 C5.38178252,153.613026 5.83591825,155.202461 6.32255394,156.780951 L4.41131829,157.37017 C3.91653064,155.765237 3.45478793,154.149178 3.02646206,152.522829 Z M163.08235,146.733677 L164.811313,147.739007 C164.001198,149.132241 163.250866,150.582947 162.556915,152.092838 L160.73966,151.257621 C161.459924,149.690481 162.239613,148.183013 163.08235,146.733677 Z M2.83704081,142.340013 C3.12466578,143.969519 3.44565233,145.590988 3.79970495,147.20365 L1.8462299,147.632527 C1.48626054,145.992915 1.15991278,144.344363 0.867487159,142.68766 Z M169.12918,138.504802 L170.599667,139.860408 C169.495481,141.058167 168.461618,142.315925 167.494853,143.634185 L165.882067,142.451426 C166.892703,141.073343 167.974021,139.757855 169.12918,138.504802 Z M1.51532524,132.487162 C1.66759382,134.135631 1.85343199,135.778045 2.07260695,137.413688 L0.0903245035,137.679312 C-0.132488247,136.016521 -0.321407294,134.346879 -0.476196804,132.671118 Z M176.857209,131.815855 L177.992234,133.462584 C176.629729,134.401705 175.34,135.398279 174.120357,136.452121 L172.812752,134.938791 C174.087537,133.837302 175.434886,132.796206 176.857209,131.815855 Z M185.814843,126.879613 L186.613004,128.713445 C185.076814,129.382059 183.607688,130.101385 182.20372,130.870977 L181.242367,129.117181 C182.69988,128.318238 184.223466,127.572248 185.814843,126.879613 Z M1.00693857,122.579986 C1.02455822,124.237621 1.07571924,125.89103 1.16024272,127.539556 L-0.837133613,127.641966 C-0.923042869,125.966412 -0.975041085,124.285947 -0.992948457,122.601243 Z M195.421982,123.568117 L195.936323,125.500849 C194.305977,125.934718 192.733576,126.411486 191.21786,126.930722 L190.5697,125.038662 C192.129963,124.504166 193.746991,124.013867 195.421982,123.568117 Z M205.363516,121.547701 L205.654857,123.526367 C203.981476,123.772758 202.357079,124.055008 200.780826,124.372778 L200.385582,122.412221 C201.996652,122.087432 203.655685,121.799164 205.363516,121.547701 Z M215.415547,120.527822 L215.535147,122.524243 C213.845888,122.625442 212.198147,122.756823 210.591343,122.918129 L210.391569,120.928132 C212.025308,120.764122 213.699771,120.63061 215.415547,120.527822 Z M225.414974,120.247698 L225.453892,122.24732 C224.760988,122.260805 224.060152,122.269645 223.342796,122.27392 C222.369354,122.279773 221.408071,122.294433 220.458863,122.317862 L220.409514,120.318471 C221.371225,120.294734 222.344948,120.279883 223.330825,120.273955 C224.039298,120.269734 224.731135,120.261008 225.414974,120.247698 Z M235.315352,119.675709 L235.51814,121.665401 C233.907815,121.829524 232.232964,121.960827 230.493372,122.05904 L230.380637,120.06222 C232.090641,119.965678 233.735498,119.836726 235.315352,119.675709 Z M245.055443,118.090914 L245.516594,120.037023 C243.948599,120.408575 242.28979,120.734515 240.53976,121.01439 L240.223922,119.039486 C241.926186,118.76725 243.5366,118.450819 245.055443,118.090914 Z M254.253385,114.839618 L255.168852,116.617797 C253.733621,117.356702 252.155689,118.024669 250.434377,118.62087 L249.779801,116.731021 C251.413987,116.164998 252.904863,115.533883 254.253385,114.839618 Z M-0.691424092,112.516529 L1.30359337,112.657615 C1.1871898,114.303609 1.10414923,115.954918 1.05466244,117.610871 L-0.944445097,117.551129 C-0.894147116,115.868031 -0.80974272,114.189602 -0.691424092,112.516529 Z M261.50304,108.792165 L263.155767,109.918438 C262.197513,111.324611 260.995604,112.617313 259.550648,113.791964 L258.289059,112.240064 C259.586628,111.185228 260.656158,110.034905 261.50304,108.792165 Z M0.417659483,102.588926 L2.39458637,102.891845 C2.14455842,104.52359 1.92784557,106.162561 1.74469438,107.80803 L-0.243030443,107.586783 C-0.0568399918,105.914009 0.163473332,104.247808 0.417659483,102.588926 Z M265.954626,99.844803 C266.010014,101.691198 265.817325,103.446275 265.370733,105.101766 L263.43976,104.580859 C263.833941,103.119653 264.005178,101.559971 263.955525,99.904772 Z M2.34664216,92.732138 L4.29188435,93.1969313 C3.90815076,94.8029243 3.55738123,96.4181919 3.23988617,98.0419512 L1.277056,97.6581573 C1.59985621,96.007266 1.95649022,94.364993 2.34664216,92.732138 Z M263.587601,89.7621491 C264.275263,91.4394289 264.816543,93.0691332 265.20771,94.6477382 L263.266421,95.1287755 C262.899502,93.6480261 262.38887,92.1105971 261.737088,90.5208346 Z M5.1061726,82.9969547 L7.00595925,83.6221032 C6.48969842,85.1909871 6.00575622,86.7713083 5.5545142,88.3622398 L3.63041248,87.8164994 C4.08921346,86.1989175 4.58126305,84.5921215 5.1061726,82.9969547 Z M258.774779,80.7295496 C259.730908,82.2127301 260.59575,83.6704264 261.366773,85.1000565 L259.60646,86.0494228 C258.860742,84.6667146 258.022385,83.253659 257.093793,81.8131934 Z M8.66278268,73.5347257 L10.5040081,74.3156795 C9.85857876,75.8373841 9.24457429,77.3727669 8.66245273,78.9209671 L6.79040987,78.2170811 C7.38227557,76.6429655 8.00655535,75.0818882 8.66278268,73.5347257 Z M252.78744,72.5476948 C253.88181,73.8921622 254.913269,75.2227914 255.879701,76.5374947 L254.268245,77.7220669 C253.32164,76.4343341 252.310302,75.1296621 251.236336,73.8102628 Z M246.154833,65.0348553 C247.335496,66.2784964 248.46986,67.5153516 249.556,68.7436372 L248.057753,70.0684977 C246.98744,68.8581113 245.869005,67.6386232 244.704371,66.4118662 Z M12.9922712,64.4020476 L14.7623867,65.33301 C13.9929922,66.7959231 13.2538174,68.2747665 12.545398,69.7686617 L10.7382898,68.9117136 C11.458535,67.3928805 12.2100439,65.8893606 12.9922712,64.4020476 Z M239.041125,57.9826346 C240.284401,59.1477388 241.4924,60.3109662 242.663296,61.4707319 L241.255853,62.8916834 C240.098192,61.7450276 238.903478,60.5945919 237.673535,59.4419826 Z M18.0593895,55.6649174 L19.746562,56.7389049 C18.8585711,58.1338873 17.9993869,59.5470627 17.1696224,60.9775486 L15.4396034,59.9740376 C16.2831705,58.5197564 17.1566405,57.0830842 18.0593895,55.6649174 Z M231.536119,51.2906457 C232.826458,52.388063 234.089687,53.4874052 235.324044,54.5872368 L233.993544,56.0804776 C232.770742,54.9909424 231.519105,53.9016874 230.240391,52.8141579 Z M23.8283095,47.3771892 L25.4213599,48.5863999 C24.4221407,49.9028012 23.4500496,51.2395818 22.5057711,52.5958742 L20.8643981,51.4531168 C21.8243325,50.0743373 22.8125349,48.7154012 23.8283095,47.3771892 Z M223.74388,44.9443562 C225.074584,45.9835457 226.384507,47.0278377 227.671922,48.0759063 L226.409254,49.6269284 C225.132368,48.5874312 223.833009,47.5515611 222.512903,46.520648 Z M30.2517159,39.5998187 L31.740211,40.9356264 C30.6356892,42.1663988 29.5565061,43.4197129 28.5034126,44.6947285 L26.9613821,43.4210952 C28.0318964,42.1249876 29.1289286,40.8509444 30.2517159,39.5998187 Z M215.714293,38.9182132 C217.078271,39.9025117 218.42678,40.894736 219.75812,41.893655 L218.557801,43.493416 C217.236409,42.5019604 215.897887,41.5170847 214.543935,40.5400215 Z M207.448917,33.1778847 C208.842894,34.1095678 210.226057,35.0518481 211.596726,36.0035756 L210.456037,37.6463864 C209.095098,36.7014152 207.721714,35.7657971 206.337564,34.8406819 Z M37.2928375,32.3735439 L38.6668236,33.8268718 C37.4656617,34.9624585 36.287846,36.1225997 35.1341812,37.3065 L33.7017952,35.9106954 C34.8745311,34.7072243 36.0718174,33.5279046 37.2928375,32.3735439 Z M199.002923,27.745299 C200.424089,28.624492 201.838713,29.5169189 203.24513,30.4215032 L202.163226,32.1036104 C200.766647,31.2053533 199.361921,30.3191707 197.950713,29.4461382 Z M44.8520313,25.7895639 L46.1029868,27.3500478 C44.8137493,28.3835598 43.5457688,29.4434929 42.2998901,30.5291085 L40.9859877,29.0212422 C42.2524825,27.9176626 43.5414495,26.8401864 44.8520313,25.7895639 Z M190.349553,22.6026649 C191.797424,23.4282329 193.242858,24.2697995 194.684201,25.1263527 L193.662456,26.8456661 C192.231398,25.9952246 190.796325,25.1596904 189.358892,24.3400739 Z M52.9941903,19.7964331 L54.1123183,21.4546821 C52.7415024,22.3789991 51.389791,23.3315063 50.0580568,24.3115303 L48.8726419,22.7006946 C50.2264692,21.7044123 51.600614,20.736097 52.9941903,19.7964331 Z M181.532658,17.7900041 C183.007876,18.5592553 184.484793,19.3475464 185.961746,20.1539203 L185.003343,21.9093302 C183.537515,21.1090304 182.071823,20.3267304 180.60793,19.5633848 Z M61.6001717,14.4974076 L62.5774217,16.2423955 C61.135911,17.0496884 59.7112501,17.8866703 58.3043203,18.752743 L57.2558886,17.0495721 C58.6862437,16.1690795 60.1346365,15.3181551 61.6001717,14.4974076 Z M172.509669,13.3139171 C174.010496,14.0198136 175.517412,14.7481845 177.028748,15.4981239 L176.139757,17.2896863 C174.640878,16.5459276 173.146549,15.823641 171.658445,15.1237286 Z M70.6053732,9.93377991 L71.4346487,11.7537531 C69.9290792,12.4397697 68.4381547,13.1568729 66.9627542,13.9045398 L66.0586989,12.1205319 C67.5587602,11.3603681 69.0746163,10.6312732 70.6053732,9.93377991 Z M163.300803,9.23475712 C164.829739,9.86899729 166.369697,10.5298957 167.918976,11.2165851 L167.108551,13.0450303 C165.573787,12.3647743 164.048524,11.7101824 162.534473,11.0821168 Z M79.920368,6.14707418 L80.5960928,8.02946523 C79.0395172,8.58823148 77.4953467,9.17911507 75.9644374,9.80167141 L75.2110348,7.94900188 C76.7676121,7.31600744 78.3376805,6.71521388 79.920368,6.14707418 Z M153.928721,5.63443882 C155.484861,6.18247511 157.057845,6.7623682 158.645918,7.37327894 L157.927844,9.23992545 C156.357414,8.63580164 154.802328,8.06250712 153.264363,7.52087155 Z M89.564575,3.13272775 L90.0811009,5.06487708 C88.4826082,5.49220575 86.8943397,5.95246787 85.3171173,6.445294 L84.7206289,4.53631479 C86.3243264,4.03521613 87.9392546,3.56722832 89.564575,3.13272775 Z M144.355237,2.60854101 C145.940533,3.04888953 147.550102,3.52809041 149.182083,4.04531076 L148.577847,5.9518518 C146.968457,5.44179135 145.381863,4.96943037 143.819962,4.53558046 Z M99.4154178,0.934007681 L99.7695966,2.90239722 C98.1396963,3.19567056 96.5179269,3.52242658 94.905065,3.88236562 L94.4694451,1.93038321 C96.1093244,1.56441476 97.7582465,1.23218798 99.4154178,0.934007681 Z M134.569941,0.33089181 C136.183048,0.627604078 137.830575,0.973082862 139.510494,1.36646713 L139.054492,3.31378901 C137.405346,2.92761083 135.789192,2.58871083 134.208134,2.2978935 Z M109.402631,-0.439452749 L109.593172,1.55145013 C107.943528,1.70933042 106.300029,1.90092844 104.663399,2.12600762 L104.390912,0.144656879 C106.05478,-0.0841682153 107.7256,-0.278951334 109.402631,-0.439452749 Z M124.510912,-0.906586861 C126.145096,-0.817124824 127.828896,-0.663632779 129.55999,-0.447077982 L129.311731,1.53745405 C127.62594,1.32656649 125.988406,1.17729197 124.401588,1.09042293 Z M119.468653,-0.988291155 L119.496084,1.01152072 C117.840184,1.03423417 116.188573,1.09051216 114.541909,1.18017383 L114.433169,-0.81686789 C116.106911,-0.908003978 117.785631,-0.965205682 119.468653,-0.988291155 Z" transform="matrix(-1 0 0 1 264.964 77.452)"/><g fill-rule="nonzero" transform="translate(21.352 91.134)"><path fill="#ADDDDD" d="M112.369183,47.2303795 C112.369183,50.5363122 111.035403,53.7067039 108.661527,56.0434599 C106.287652,58.380216 103.068338,59.691725 99.7124514,59.6892033 L13.0061237,59.6892033 C8.40273293,59.8144372 4.09356094,57.4666635 1.75438326,53.5588981 C-0.58479442,49.6511327 -0.58479442,44.800123 1.75438326,40.8923576 C4.09356094,36.9845922 8.40273293,34.6368185 13.0061237,34.7620523 L15.9001933,34.7620523 C13.7894262,27.3588064 15.3194071,19.4090219 20.0344168,13.2806168 C24.7494265,7.15221165 32.1054123,3.55232666 39.9113248,3.55321278 L47.2912025,3.55321278 C56.6020155,3.54559447 65.1391544,8.65615256 69.4211887,16.8008189 C71.5284986,15.7358609 73.8634793,15.1819829 76.2318993,15.1852582 L78.1612791,15.1852582 C82.1397726,15.1852582 85.9553173,16.7421825 88.7685369,19.5135254 C91.5817566,22.2848684 93.162207,26.043616 93.162207,29.9628868 L93.162207,30.6946408 C93.1626524,32.0703938 92.9678284,33.4394514 92.5833931,34.7620523 L99.7606859,34.7620523 C106.729757,34.7934232 112.363948,40.3649784 112.369183,47.2303795 L112.369183,47.2303795 Z"/><path fill="#E4F4F5" d="M116.629626,43.6771667 C116.629626,46.9830994 115.295846,50.1534911 112.92197,52.4902472 C110.548095,54.8270032 107.328781,56.1385122 103.972894,56.1359906 L17.2665666,56.1359906 C12.6631759,56.2612244 8.35400389,53.9134508 6.01482621,50.0056853 C3.67564853,46.0979199 3.67564853,41.2469102 6.01482621,37.3391448 C8.35400389,33.4313794 12.6631759,31.0836057 17.2665666,31.2088396 L20.1606363,31.2088396 C18.0498692,23.8055936 19.57985,15.8558091 24.2948597,9.72740399 C29.0098694,3.59899888 36.3658552,-0.00088611881 44.1717678,0 L51.5516455,0 C60.8624585,-0.00761830956 69.3995973,5.10293978 73.6816316,13.2476061 C75.7889416,12.1826481 78.1239222,11.6287701 80.4923423,11.6320454 L82.4217221,11.6320454 C86.4002155,11.6320454 90.2157602,13.1889697 93.0289799,15.9603126 C95.8421996,18.7316556 97.4226499,22.4904032 97.4226499,26.409674 L97.4226499,27.141428 C97.4230954,28.517181 97.2282713,29.8862386 96.843836,31.2088396 L104.021129,31.2088396 C110.9902,31.2402104 116.624391,36.8117656 116.629626,43.6771667 L116.629626,43.6771667 Z"/></g><g transform="translate(207.008 63.864)"><rect width="126.947" height="208.577" fill="#ADDDDD"/><polygon fill="#79C4C6" points="63.206 0 126.947 0 126.947 208.577 91.595 208.577"/><rect width="4.947" height="6" x="30" y="22.42" fill="#FFF" rx="1"/><rect width="2.947" height="6" x="67" y="69.35" fill="#FFF" rx="1"/><rect width="126.947" height="1.955" y="49.537" fill="#FFF"/><rect width="126.947" height="1.955" y="91.253" fill="#FFF"/><rect width="126.947" height="1.955" y="129.057" fill="#FFF"/><rect width="126.947" height="1.955" y="169.469" fill="#FFF"/><rect width="2.947" height="6" x="67" y="111.066" fill="#FFF" rx="1"/><rect width="1" height="6" x="132" y="147.567" fill="#FFF" rx=".5"/><circle cx="60.947" cy="25.42" r="4" fill="#FFF"/><circle cx="76.947" cy="25.42" r="4" fill="#FFF"/><circle cx="92.947" cy="25.42" r="4" fill="#FFF"/><circle cx="31" cy="149.915" r="4" fill="#FFF"/><circle cx="31" cy="113.414" r="4" fill="#FFF"/><circle cx="31" cy="72.35" r="4" fill="#FFF"/><circle cx="94.947" cy="72.35" r="4" fill="#FFF"/><circle cx="94.947" cy="113.414" r="4" fill="#FFF"/><circle cx="63" cy="149.915" r="4" fill="#FFF"/><circle cx="95" cy="149.915" r="4" fill="#FFF"/><rect width="1" height="6" x="132" y="186.675" fill="#FFF" rx=".5"/><circle cx="31" cy="189.023" r="4" fill="#FFF"/><circle cx="63" cy="189.023" r="4" fill="#FFF"/><circle cx="95" cy="189.023" r="4" fill="#FFF"/><rect width="89.947" height="29.14" x="18" y="16" stroke="#FFF" stroke-width="2" rx="1"/></g><g transform="translate(102.327 125.01)"><rect width="102.774" height="139.632" x="5.604" y="7.613" fill="#ADDDDD"/><use xlink:href="#a" stroke="#ADDDDD" stroke-dasharray="7" stroke-width="4" mask="url(#b)"/><polygon fill="#79C4C6" points="52.894 17.447 100.971 17.447 100.971 147.757 74.306 147.757"/><rect width="1" height="6" x="42.922" y="21.631" fill="#FFF" rx=".5"/><rect width="1" height="6" x="79.922" y="53.048" fill="#FFF" rx=".5"/><rect width="102.774" height="1.309" x="5.604" y="40.776" fill="#FFF"/><rect width="102.774" height="1.309" x="5.604" y="68.702" fill="#FFF"/><rect width="102.774" height="1.309" x="5.604" y="94.011" fill="#FFF"/><rect width="102.774" height="1.309" x="5.604" y="121.064" fill="#FFF"/><rect width="1" height="6" x="79.922" y="80.974" fill="#FFF" rx=".5"/><rect width="1" height="6" x="144.922" y="105.41" fill="#FFF" rx=".5"/><circle cx="34.971" cy="24.631" r="4" fill="#FFF"/><circle cx="50.971" cy="24.631" r="4" fill="#FFF"/><circle cx="66.971" cy="24.631" r="4" fill="#FFF"/><circle cx="43.922" cy="107.974" r="4" fill="#FFF"/><circle cx="43.922" cy="83.538" r="4" fill="#FFF"/><circle cx="43.922" cy="56.048" r="4" fill="#FFF"/><circle cx="68.971" cy="56.048" r="4" fill="#FFF"/><circle cx="68.971" cy="83.538" r="4" fill="#FFF"/><circle cx="75.922" cy="107.974" r="4" fill="#FFF"/><circle cx="107.922" cy="107.974" r="4" fill="#FFF"/><rect width="1" height="6" x="144.922" y="131.591" fill="#FFF" rx=".5"/><circle cx="43.922" cy="134.155" r="4" fill="#FFF"/><circle cx="75.922" cy="134.155" r="4" fill="#FFF"/><circle cx="107.922" cy="134.155" r="4" fill="#FFF"/><rect width="51.049" height="17.375" x="30.922" y="33.447" stroke="#FFF" stroke-width="2" rx="1"/></g><g transform="matrix(-1 0 0 1 192.153 94.709)"><polygon fill="#F46162" points="0 6.124 1.522 63.65 44.853 80.017 44.853 16.163"/><polygon fill="#FDD6D6" fill-rule="nonzero" points="91.293 7.918 44.853 16.163 44.853 80.017 91.293 65.611"/><polygon fill="#F9ADAD" points="0 6.124 45.189 17.202 91.293 7.936 44.968 0"/></g><g transform="matrix(-1 0 0 1 212.571 137.696)"><polygon fill="#F46162" points="0 2.677 .665 27.817 19.602 34.97 19.602 7.064"/><polygon fill="#FDD6D6" fill-rule="nonzero" points="39.899 3.461 19.602 7.064 19.602 34.97 39.899 28.675"/><polygon fill="#F9ADAD" points="0 2.677 19.749 7.518 39.899 3.468 19.653 0"/></g><g transform="matrix(-1 0 0 1 212.571 137.696)"><polygon fill="#F46162" points="0 2.677 .665 27.817 19.602 34.97 19.602 7.064"/><polygon fill="#FDD6D6" fill-rule="nonzero" points="39.899 3.461 19.602 7.064 19.602 34.97 39.899 28.675"/><polygon fill="#F9ADAD" points="0 2.677 19.749 7.518 39.899 3.468 19.653 0"/></g><g transform="matrix(-1 0 0 1 165.05 71.114)"><polygon fill="#F46162" points="0 2.677 .665 27.817 19.602 34.97 19.602 7.064"/><polygon fill="#FDD6D6" fill-rule="nonzero" points="39.899 3.461 19.602 7.064 19.602 34.97 39.899 28.675"/><polygon fill="#F9ADAD" points="0 2.677 19.749 7.518 39.899 3.468 19.653 0"/></g><g transform="translate(50.444 142.675)"><g fill-rule="nonzero" transform="translate(0 10.25)"><g transform="translate(14.367 74.98)"><rect width="58.326" height="8.132" fill="#C9C9C9" rx="4.066"/><rect width="20.306" height="5.136" x="19.01" y="8.132" fill="#000"/><rect width="6.481" height="32.526" x="25.923" y="13.267" fill="#DEDEDE"/><g fill="#DEDEDE" transform="translate(10.663 41.118)"><polygon points="17.307 0 0 7.73 .246 9.92 18.293 4.181"/><polygon points="19.413 0 36.723 7.729 36.477 9.92 18.43 4.18"/></g><path fill="#000" d="M43.2112199 51.0385736C43.2114587 53.3213771 45.079821 55.1717634 47.3843241 55.171527 49.6888272 55.1712907 51.5568027 53.3205211 51.5565641 51.0377176 51.5563255 48.7549141 49.6879632 46.9045277 47.3834601 46.9047641 46.2767284 46.9046505 45.2153052 47.3401665 44.4328087 48.1154554 43.6503123 48.8907443 43.2108763 49.942263 43.2112199 51.0385736ZM6.49015086 51.0385736C6.49038968 53.3213771 8.358752 55.1717634 10.6632551 55.171527 12.9677582 55.1712907 14.8357336 53.3205211 14.835495 51.0377176 14.8352564 48.7549141 12.9668941 46.9045277 10.662391 46.9047641 9.55565931 46.9046505 8.49423616 47.3401665 7.71173969 48.1154554 6.92924322 48.8907443 6.48980721 49.942263 6.49015086 51.0385736Z"/></g><path fill="#DEDEDE" d="M52.8801992,66.1367742 L14.7809128,66.1367742 C12.0895397,66.1531645 9.78051933,64.2398588 9.32161651,61.6128162 L0.0659577317,6.25725995 C-0.182939762,4.683487 0.279854566,3.08095013 1.33131195,1.87566605 C2.38276934,0.670381978 3.91635786,-0.015531903 5.52438993,0 L43.6232443,0 C46.3143422,-0.0164573128 48.6232627,1.89640367 49.0825406,4.52310569 L58.3386314,59.878662 C58.5876546,61.4525412 58.1249331,63.0552339 57.073476,64.2606826 C56.0220189,65.4661312 54.4883579,66.152202 52.8801992,66.1367742 Z"/></g><g transform="translate(12.41)"><g fill-rule="nonzero" transform="translate(7.316 67.04)"><g transform="translate(47.09 13.576)"><g transform="translate(23.113 42.033)"><polygon fill="#E1AAA5" points="10.093 0 16.291 13.912 7.926 16.9 0 2.078"/><g transform="translate(6.958 11.644)"><path fill="#000" d="M9.75305111,0 L24.0984197,1.28725868 C25.1565452,1.37806695 26.0139555,2.18019555 26.1713649,3.2265503 L26.1713649,3.2265503 L0.711168989,13.6353749 L0,3.83548787 L9.75305111,0 Z"/><polygon fill="#FEFEFF" points="1.32 16.361 27.496 5.663 26.471 3.108 .295 13.806"/></g></g><path fill="#1F143C" d="M1.11260113,14.30062 L25.0531275,54.030241 L39.3050579,47.2935728 L18.6197302,5.92632784 C17.525274,3.30107951 15.320708,1.2929611 12.5983039,0.441467359 C9.87589978,-0.410026387 6.91481042,-0.0175840621 4.51055272,1.51336202 L4.51055272,1.51336202 C0.238249455,4.2657062 -1.23314614,9.80289959 1.11260113,14.30062 Z"/></g><path fill="#261A4C" d="M1.98627552,0 C1.98627552,0 -4.06990809,11.6995309 4.96764819,17.0412019 C6.28622516,17.8035543 7.76528113,18.2486235 9.28700485,18.3409582 L47.9492484,25.1448551 L61.3978693,7.04824765 L32.5535645,0.0741240352 L1.98627552,0 Z"/><g transform="translate(23.124 6.804)"><g transform="translate(0 39.75)"><polygon fill="#E1AAA5" points="23.963 7.214 16.069 20.226 8.897 14.963 16.559 0"/><g transform="translate(0 13.354)"><path fill="#000" d="M18.1637924,5.94112761 L25.2149204,18.5913423 C25.7389404,19.5156363 25.5664918,20.6763404 24.7961786,21.4097795 L24.7961786,21.4097795 L1.88779895,6.12945438 L9.51383186,0 L18.1637924,5.94112761 Z"/><polygon fill="#FEFEFF" points="0 8.174 23.552 23.886 25.066 21.591 1.514 5.877"/></g></g><path fill="#261A4C" d="M27.5932703,5.19004147 L8.57728632,47.5364133 L22.1474634,55.5758544 L44.3446741,15.0106142 C45.8731976,12.5958418 46.2709922,9.63785547 45.4344054,6.90741299 C44.5978185,4.17697051 42.6097089,1.94450559 39.9881152,0.791728079 L39.9881152,0.791728079 C35.3381813,-1.21223547 29.9244833,0.708816448 27.5932703,5.19004147 Z"/></g></g><g transform="translate(0 25.78)"><g fill-rule="nonzero" transform="translate(36.555 5.156)"><g fill="#E1AAA5" transform="translate(25.34 24.438)"><polygon points="6.221 .483 0 0 .194 6.271 5.579 6.268" transform="translate(0 .871)"/><path d="M5.76029578,1.35528625 C5.76029578,1.35528625 20.0226082,-4.18333062 18.438051,7.13265146 L4.74718278,7.13265146 L5.76029578,1.35528625 Z"/></g><path fill="#F46162" d="M9.99868494,0 C9.99868494,0 16.4212677,13.3462049 17.809864,27.0061441 C17.9651619,28.5373226 16.4173744,30.0581582 15.2243062,31.0191849 L15.2243062,31.0191849 C12.5310349,33.1886058 8.00014435,31.0191849 6.99308753,27.8641729 C6.99308753,27.8641729 -0.779158957,2.19570907 0.0639483179,1.60831918 C0.264667546,1.46869019 9.99868494,0 9.99868494,0 Z"/><path fill="#F46162" d="M14.0632493,22.2216962 L33.7358966,21.7235138 L32.2651091,31.790592 L12.5803495,31.89359 C11.8338279,31.9379877 11.0906438,31.763119 10.4429493,31.390667 C8.1622101,30.0268533 7.33708677,27.1326446 8.55774582,24.7781135 L8.55774582,24.7781135 C9.5867804,22.7684857 11.8566858,21.7144812 14.0632493,22.2216962 L14.0632493,22.2216962 Z"/></g><g fill-rule="nonzero" transform="translate(8.923)"><path fill="#F46162" d="M21.6037047,0 L34.8766962,3.52778693 C36.226599,3.69706447 37.1957558,4.90637947 37.0625459,6.25529286 L28.4869899,41.3495759 C28.4869899,41.3495759 23.6342565,46.7252923 0,41.2806233 L3.30408074,5.45932139 C3.13580535,4.08026957 4.86484577,1.9134344 6.25603766,1.76001488 L21.6037047,0 Z"/><path fill="#647BF4" stroke="#000" stroke-width=".5" d="M31.9922225,26.3528183 C31.718829,27.5478529 34.7339433,14.4020415 34.7542748,14.2835292"/></g><g transform="translate(0 2.64)"><path fill="#F46162" fill-rule="nonzero" d="M24.2912714,6.24846629 C24.2912714,6.24846629 17.0567275,20.406157 8.89126162,31.815656 C7.97591273,33.0942957 5.81472035,33.7303833 4.23146092,33.6627236 L4.23146092,33.6627236 C0.656582254,33.5105969 -0.858328816,29.7052758 0.493065297,26.6080116 C0.493065297,26.6080116 12.0430726,0.428436663 13.626332,0.000499645857 C13.8698771,-0.0645743618 24.2912714,6.24846629 24.2912714,6.24846629 Z"/><g transform="translate(0 11.287)"><g fill="#E1AAA5" fill-rule="nonzero" transform="translate(26.337 15.853)"><polygon points="6.221 .483 0 0 .194 6.271 5.579 6.268" transform="translate(0 .873)"/><path d="M5.76029578,1.35559929 C5.76029578,1.35559929 20.0226082,-4.18301758 18.4371858,7.13037878 L4.74718278,7.13037878 L5.76029578,1.35559929 Z"/></g><path fill="#F46162" fill-rule="nonzero" d="M5.76929897,12.665729 L28.1291614,13.3431882 L27.6931162,23.4275047 L4.46073073,22.9349246 C2.88588575,22.7097903 1.50119317,21.7787173 0.702547407,20.4079065 C-0.0960983543,19.0370957 -0.220778093,17.3774533 0.364155103,15.9034841 L0.364155103,15.9034841 C1.20949942,13.7188574 3.43604918,12.3851236 5.76929897,12.665729 L5.76929897,12.665729 Z"/><g stroke="#000" stroke-width=".5" transform="translate(10.942)"><polyline points="9.039 0 3.124 12.917 17.187 13.344 17.2 16.726"/><line x1="3.124" y1="12.917" y2="14.46"/></g></g></g></g><g transform="translate(24.9)"><path fill="#E1AAA5" fill-rule="nonzero" d="M12.6094069,27.5698316 L8.34066258,26.3903113 L3.6298169,25.9115218 L0,26.3903113 C0,26.3903113 0.227972054,31.1501949 8.45962333,31.9961569 C15.6452852,32.7335187 12.6094069,27.5698316 12.6094069,27.5698316 Z"/><g transform="translate(1.514)"><ellipse cx="9.233" cy="10.118" fill="#371405" fill-rule="nonzero" rx="9.043" ry="9.009" transform="rotate(-1.226 9.233 10.118)"/><polygon fill="#E1AAA5" fill-rule="nonzero" points="4.972 16.249 1.214 26.817 9.202 28.234 11.076 21.031"/><polygon fill="#E1AAA5" fill-rule="nonzero" points="6.956 20.671 9.885 25.45 11.045 21.171 8.075 20.061"/><path fill="#E1AAA5" fill-rule="nonzero" d="M10.9195162,2.03927288 C10.9195162,2.03927288 19.6936284,3.98545975 19.9436623,9.78437265 C20.1936962,15.5832855 18.9945718,23.8386345 15.8393002,24.215288 C12.6840285,24.5919415 6.09922659,22.4720803 5.03247311,18.1453053 C3.96571962,13.8185302 5.33052386,1.30061825 10.9195162,2.03927288 Z"/><path fill="#E1AAA5" fill-rule="nonzero" d="M19.1485719,15.1639676 L20.9727809,18.2008983 C21.0243034,18.3238051 21.0051469,18.4648537 20.922692,18.5697013 C20.8402371,18.674549 20.7073526,18.726832 20.5752357,18.706407 L18.3430995,18.5185111 L19.1485719,15.1639676 Z"/><path fill="#000" fill-rule="nonzero" d="M3.32100423 4.16517522C3.27589603 4.40753103 3.08867441 4.59894655 2.84665264 4.65015261 2.60463088 4.70135867 2.35547925 4.60226937 2.21539294 4.39909633 2.07530663 4.19592328 2.07187799 3.92868485 2.20670603 3.72201124 2.34153406 3.51533762 2.58806211 3.40993668 2.83131853 3.45496354 2.99088802 3.48426696 3.13219671 3.57561719 3.22406536 3.70885815 3.31593402 3.84209911 3.35081222 4.00628011 3.32100423 4.16517522ZM4.06721257.811493584C4.06721257.811493584 4.16281375 1.53937437 3.06664452 1.40491682 2.27873302 1.33790904 1.48637346 1.3415148.699109313 1.41569066.430715464 1.4423979.171918374 1.30824279.0398504688 1.07394438L.0398504688 1.07394438C-.0456072353.905248189.0103608978.69950437.169625832.596878645.935772426.159835878 1.81336767-.0447684773 2.69462181.00819589994 3.99670129.153858248 4.06721257.811493584 4.06721257.811493584Z" transform="translate(15.084 11.092)"/><path stroke="#000" stroke-linecap="round" stroke-linejoin="round" stroke-width=".36" d="M18.8029369,20.0518444 C17.9768181,20.1964669 17.1306216,19.9444275 16.5197557,19.3717995"/><path fill="#371405" fill-rule="nonzero" d="M9.94360542,14.3809247 C9.94360542,14.3809247 15.8989968,9.98519707 10.4332911,7.16934564 L18.9552066,6.87026378 C18.9552066,6.87026378 18.2531219,1.57685956 9.36567247,1.10970576 L3.74856218,7.08229299 C3.74856218,7.08229299 1.67734739,14.3524818 4.5008267,17.6406585 L5.38589468,17.7828732 C6.52872623,17.9667934 7.69730021,17.6763353 8.61946414,16.9791446 L9.94360542,14.3809247 Z"/><g fill="#E1AAA5" fill-rule="nonzero" transform="translate(5.701 11.798)"><path d="M5.21771137,2.83949283 C5.08740291,4.27179035 3.81635275,5.32771514 2.37861954,5.19806806 C0.940886338,5.06842098 -0.119185323,3.80228812 0.0107816174,2.3699598 C0.140748558,0.937631482 1.41154692,-0.118594062 2.84931099,0.0107127845 C3.53996837,0.0728277925 4.17755044,0.405789001 4.62173594,0.936317143 C5.06592143,1.46684529 5.28030752,2.15146142 5.21771137,2.83949283 Z"/><path stroke="#000" stroke-linecap="round" stroke-linejoin="round" stroke-width=".5" d="M1.9339621,1.71384178 C1.9339621,1.71384178 3.33683377,1.58929616 3.86718242,3.45317089"/></g><path fill="#371405" fill-rule="nonzero" d="M18.9565044 6.87026378C18.9565044 6.87026378 24.5528506 6.84613037 20.4856907 0L8.3153572 1.15883448 18.9565044 6.87026378ZM11.7353706 11.0832671 12.8600904 20.0613254 14.3849509 20.0936469C14.3849509 20.0936469 15.4932325 17.7983875 19.1533303 18.7120094 18.9687179 20.7588065 18.2935691 22.7315404 17.1846381 24.4643793 16.813731 25.0751958 16.0947746 25.3844327 15.3941707 25.2344935 13.6318212 24.8466352 10.1624932 23.8554417 7.6353343 21.7437686L10.9286004 12.5136024 11.7353706 11.0832671Z"/></g></g></g><g transform="translate(16.77 62.635)"><g stroke="#273237" stroke-width="2.003" transform="translate(29.343 3.29)"><line x1="15.149" y2="74.712"/><line x1="110.369" x2="125.085" y2="74.712"/></g><path fill="#2E2E2E" fill-rule="nonzero" d="M179.265911,6.63560896 L3.11314416,6.63560896 C1.33160419,6.56968766 -0.0600584799,5.08576036 0.00203011278,3.31823386 L0.00203011278,3.31823386 C-0.0605473755,1.55037742 1.33125434,0.0659176716 3.11314416,0 L179.265911,0 C181.047929,0.0659216061 182.439979,1.55023321 182.37789,3.31823386 L182.37789,3.31823386 C182.439731,5.08599392 181.047686,6.56991616 179.265911,6.63560896 L179.265911,6.63560896 Z"/></g><g fill-rule="nonzero" transform="translate(105.701 14.187)"><rect width="59.331" height="37.988" fill="#C9C9C9" rx="2.872" transform="rotate(180 29.666 18.994)"/><rect width="59.331" height="37.988" x="1.296" fill="#DEDEDE" rx="2.872" transform="rotate(180 30.961 18.994)"/><g transform="translate(12.988 16.863)"><polygon fill="#C9C9C9" points="14.157 .526 0 21.125 20.362 21.125"/><g fill="#AAA" transform="translate(9.974)"><path d="M14.3310468,0 L5.22527863,0 C4.83794547,0.000337059681 4.47122808,0.17016861 4.22626691,0.462655211 C3.98130574,0.755141811 3.88398052,1.13938274 3.9611335,1.50940457 L9.84115204,29.7384996 C9.9633592,30.3246015 10.4917748,30.7459351 11.1052972,30.7464691 L20.6648499,30.7464691 C21.0556788,30.7464691 21.4254404,30.5737572 21.6704148,30.2768948 C21.9153892,29.9800325 22.0091908,29.5909519 21.9255077,29.2187919 L15.5925765,0.990121803 C15.463068,0.41204974 14.9380155,0 14.3310468,0 Z"/><path d="M1.03485546,28.7296801 L17.8344725,28.7296801 L17.8344725,30.7464692 L1.03485546,30.7464692 C0.760359297,30.7465819 0.497072557,30.6403321 0.302974443,30.4511173 C0.10887633,30.2619025 0,30.0052398 0,29.7376497 L0,29.7376497 C0,29.4702069 0.109209712,29.2137625 0.303282745,29.0247316 C0.497355777,28.8357006 0.760510353,28.7295675 1.03485546,28.7296801 Z"/></g></g></g></g></g></svg>