<?xml version="1.0" encoding="UTF-8"?>
<svg width="238px" height="320px" viewBox="0 0 238 320" version="1.1" xmlns="http://www.w3.org/2000/svg" xmlns:xlink="http://www.w3.org/1999/xlink">
    <title>9431D01F-257E-4BE5-8828-C866B6042B3E</title>
    <g id="Concept-1---Approved" stroke="none" stroke-width="1" fill="none" fill-rule="evenodd">
        <g id="Welcome" transform="translate(-841.000000, -188.000000)" fill-rule="nonzero">
            <g id="Modal" transform="translate(480.000000, 188.000000)">
                <g id="Illustration---Kube" transform="translate(361.000000, 0.000000)">
                    <polygon id="Path" fill="#DEE4E7" points="0 251.359631 118.113012 320 237.236439 251.382252 118.904755 182.711721"></polygon>
                    <g id="library-runtimes-grey" transform="translate(2.684387, 0.000000)">
                        <polygon id="Path" fill="#D1D1D1" opacity="0.5" points="0.467505537 67.8787879 0.233752769 203.040671 116.778359 135.991329 116.899006 4.08690325"></polygon>
                        <polygon id="Path" fill="#EBECEC" opacity="0.75" points="234.476648 201.18573 234.205193 67.7581413 116.899006 4.08690325 116.778359 135.991329"></polygon>
                        <polygon id="Path" fill="#DCDCDC" opacity="0.75" points="0.233752769 203.040671 116.778359 135.991329 234.552052 201.238513 116.899006 270.685706"></polygon>
                        <polygon id="Path" fill="#4C4C4C" points="227.071964 185.019087 117.735991 248.562138 7.26895707 184.90598 117.004571 121.476036"></polygon>
                        <polygon id="Path" fill="#B8B9B9" points="227.071964 185.019087 227.041802 197.211933 117.698289 260.754984 117.735991 248.562138"></polygon>
                        <polygon id="Path" fill="#DCDCDC" points="117.735991 248.562138 117.698289 260.754984 7.2237146 197.091286 7.26141665 184.90598"></polygon>
                        <polygon id="Path" fill="#EE0000" points="227.071964 167.110608 117.735991 230.653659 7.26895707 166.997502 117.004571 103.560017"></polygon>
                        <polygon id="Path" fill="#A30000" points="227.071964 167.110608 227.041802 179.295914 117.698289 242.838965 117.735991 230.653659"></polygon>
                        <polygon id="Path" fill="#CC0000" points="117.735991 230.653659 117.698289 242.838965 7.2237146 179.182808 7.26141665 166.989962"></polygon>
                        <polygon id="Path" fill="#DCDCDC" points="72.0260144 199.820915 165.036995 146.412178 165.036995 56.1157453 72.0260144 109.524483"></polygon>
                        <path d="M72.0260144,89.0447241 L72.0260144,108.182289 L165.029455,54.7660116 L165.029455,35.6284462 L72.0260144,89.0447241 Z M143.441255,61.0773363 C142.06136,61.8313775 140.937839,61.2281446 140.930298,59.6446581 C141.026586,57.8911237 141.953815,56.2887834 143.426175,55.3315425 C144.80607,54.5322588 145.929591,55.1731938 145.929591,56.7566803 C145.839783,58.5122402 144.914651,60.1186066 143.441255,61.0773363 L143.441255,61.0773363 Z M150.634808,56.9074886 C149.254913,57.7067722 148.131392,57.0658372 148.131392,55.4823507 C148.21869,53.7280621 149.144729,52.1229276 150.619728,51.1692351 C151.999623,50.3699515 153.123144,51.0108865 153.130685,52.594373 C153.030949,54.340847 152.103681,55.934851 150.634808,56.8848673 L150.634808,56.9074886 Z M157.866063,52.7527216 C156.486168,53.5520053 155.362647,52.9110703 155.355106,51.3275838 C155.447334,49.5727386 156.37188,47.9673919 157.843442,47.0069278 C159.230878,46.2151845 160.354399,46.8485791 160.354399,48.439606 C160.256366,50.1846774 159.332062,51.7784011 157.866063,52.7301004 L157.866063,52.7527216 Z" id="Shape" fill="#DCDCDC"></path>
                        <g id="container-grey" fill="#FFFFFF">
                            <path d="M3.67218059,69.4245723 L112.683915,132.130638 L113.347472,264.887129 L3.53645318,201.328998 L3.67218059,73.7980112 M0.143267826,67.7128988 L-1.67430778e-15,203.39507 L116.876384,271.032565 L116.167586,130.072105 L7.27649748,67.7355201 L0.143267826,67.7355201 L0.143267826,67.7128988 Z" id="Shape"></path>
                            <path d="M116.899006,4.08690325 L227.071964,67.7204392 L116.318394,130.15505 L7.2237146,67.6827372 L116.899006,4.08690325 M116.899006,0 L0.143267826,67.697818 L116.310853,134.219332 L234.205193,67.7581413 L116.899006,0 Z" id="Shape"></path>
                        </g>
                    </g>
                </g>
            </g>
        </g>
    </g>
</svg>
