<?xml version="1.0" encoding="UTF-8"?>
<svg width="39px" height="50px" viewBox="0 0 39 50" version="1.1" xmlns="http://www.w3.org/2000/svg" xmlns:xlink="http://www.w3.org/1999/xlink">
    <title>AB63849D-0862-4E11-9057-7443FC8A302B</title>
    <g id="Concept-1---Approved" stroke="none" stroke-width="1" fill="none" fill-rule="evenodd">
        <g id="6.-Private-ssh-key" transform="translate(-827.000000, -614.000000)" fill="#0066CC" fill-rule="nonzero">
            <g id="Modal" transform="translate(480.000000, 220.000000)">
                <g id="Form-Field-Group" transform="translate(309.000000, 278.000000)">
                    <g id="Stacked-Group-2" transform="translate(22.000000, 93.000000)">
                        <g id="Stacked-Group" transform="translate(16.000000, 16.000000)">
                            <g id="Icon-Red_Hat-eBook-A-Black-RGB" transform="translate(0.000000, 7.000000)">
                                <path d="M37.848599,0.000144148988 L1.13831611,0.000144148988 C0.834985228,-0.00471742417 0.542602882,0.113569611 0.328086246,0.328086246 C0.113569611,0.542602882 -0.00471742417,0.834985228 0.000144148988,1.13831611 L0.000144148988,48.8616839 C-0.00471742417,49.1650148 0.113569611,49.4573971 0.328086246,49.6719138 C0.542602882,49.8864304 0.834985228,50.0047174 1.13831611,49.9998559 L37.848599,49.9998559 C38.1519299,50.0047174 38.4443122,49.8864304 38.6588289,49.6719138 C38.8733455,49.4573971 38.9916326,49.1650148 38.986771,48.8616839 L38.986771,1.13831611 C38.9916326,0.834985228 38.8733455,0.542602882 38.6588289,0.328086246 C38.4443122,0.113569611 38.1519299,-0.00471742417 37.848599,0.000144148988 Z M36.7105802,47.7236651 L2.27633488,47.7236651 L2.27633488,2.27633488 L36.7105802,2.27633488 L36.7105802,47.7236651 Z" id="Shape"></path>
                                <path d="M19.0529342,7.70945675 C19.5906686,7.95628478 20.227978,7.75738515 20.5298652,7.24851732 C20.8317524,6.73964949 20.7008202,6.08498846 20.2264367,5.73137477 C19.7520531,5.37776109 19.0872677,5.43928043 18.6858313,5.87394261 C18.2474812,6.32313991 18.2474812,7.03999775 18.6858313,7.48919506 C18.7882285,7.59168111 18.9143184,7.66733501 19.0529342,7.70945675 L19.0529342,7.70945675 Z" id="Path"></path>
                                <path d="M23.1644859,42.2171227 L15.8224293,42.2171227 C15.1939189,42.2171227 14.6844105,42.726631 14.6844105,43.3551415 C14.6844105,43.9836519 15.1939189,44.4931602 15.8224293,44.4931602 L23.1644859,44.4931602 C23.7929962,44.4931602 24.3025045,43.9836518 24.3025045,43.3551415 C24.3025045,42.7266311 23.7929962,42.2171227 23.1644859,42.2171227 L23.1644859,42.2171227 Z" id="Path"></path>
                                <path d="M8.48037269,16.960448 L19.4934576,16.960448 C20.121968,16.960448 20.6314763,16.4509397 20.6314763,15.8224293 C20.6314763,15.1939189 20.121968,14.6844105 19.4934576,14.6844105 L8.48037269,14.6844105 C7.85186228,14.6844105 7.34235392,15.1939189 7.34235392,15.8224293 C7.34235392,16.4509397 7.85186228,16.960448 8.48037269,16.960448 L8.48037269,16.960448 Z" id="Path"></path>
                                <path d="M8.48037269,22.4669905 L30.5065424,22.4669905 C31.1350528,22.4669905 31.6445612,21.9574821 31.6445612,21.3289717 C31.6445612,20.7004613 31.1350528,20.1909529 30.5065424,20.1909529 L8.48037269,20.1909529 C7.85186228,20.1909529 7.34235392,20.7004613 7.34235392,21.3289717 C7.34235392,21.9574821 7.85186228,22.4669905 8.48037269,22.4669905 Z" id="Path"></path>
                                <path d="M8.48037269,27.9735329 L30.5065424,27.9735329 C31.1350528,27.9735329 31.6445611,27.4640245 31.6445611,26.8355141 C31.6445611,26.2070038 31.1350528,25.6974954 30.5065424,25.6974954 L8.48037269,25.6974954 C7.85186231,25.6974954 7.34235399,26.2070038 7.34235399,26.8355141 C7.34235399,27.4640245 7.85186231,27.9735329 8.48037269,27.9735329 Z" id="Path"></path>
                                <path d="M8.48037269,33.4800754 L30.5065424,33.4800754 C31.1350528,33.4800754 31.6445612,32.970567 31.6445612,32.3420566 C31.6445612,31.7135462 31.1350528,31.2040378 30.5065424,31.2040378 L8.48037269,31.2040378 C8.07379772,31.2040378 7.69810694,31.4209429 7.49481945,31.7730472 C7.29153195,32.1251514 7.29153195,32.5589617 7.49481945,32.911066 C7.69810694,33.2631702 8.07379772,33.4800754 8.48037269,33.4800754 L8.48037269,33.4800754 Z" id="Path"></path>
                            </g>
                        </g>
                    </g>
                </g>
            </g>
        </g>
    </g>
</svg>