<?xml version="1.0" encoding="UTF-8"?>
<svg width="321px" height="96px" viewBox="0 0 321 96" version="1.1" xmlns="http://www.w3.org/2000/svg" xmlns:xlink="http://www.w3.org/1999/xlink">
    <title>Logo-Red_Hat-OpenShift_Container_Platform-A-Standard-RGB@2x</title>
    <g id="Desktop" stroke="none" stroke-width="1" fill="none" fill-rule="evenodd">
        <g id="OpenShift-console" transform="translate(-1043.000000, -573.000000)" fill-rule="nonzero">
            <g id="Logo-Red_Hat-OpenShift_Container_Platform-A-Standard-RGB" transform="translate(1043.000000, 573.000000)">
                <path d="M76.8029332,64.2536648 C70.5679654,64.2536648 65.6787163,59.3967365 65.6787163,53.2234719 C65.6787163,47.0502073 70.5679654,42.1903408 76.8029332,42.1903408 C83.037901,42.1903408 87.9682856,47.0502073 87.9682856,53.2234719 C87.9682856,59.3967365 83.0349628,64.2536648 76.8029332,64.2536648 Z M76.8029332,45.1550357 C72.3720513,45.1550357 68.9489893,48.6398009 68.9489893,53.2234719 C68.9489893,57.8071429 72.3720513,61.2889699 76.8029332,61.2889699 C81.2338152,61.2889699 84.6862596,57.7630691 84.6862596,53.2234719 C84.6862596,48.6838747 81.2631977,45.1550357 76.8029332,45.1550357 Z" id="Shape" fill="#000000"></path>
                <path d="M91.009375,48.3636054 L94.0240201,48.3636054 L94.0240201,49.8621132 C95.3434191,48.7134923 97.040741,48.0929547 98.7898627,48.1197306 C103.197239,48.1197306 106.643807,51.6456313 106.643807,56.1264635 C106.643807,60.6072957 103.191362,64.162579 98.7310977,64.162579 C97.0485191,64.1670978 95.4088993,63.6315436 94.0534027,62.6346887 L94.0534027,70.2447578 L90.997622,70.2447578 L91.009375,48.3636054 Z M94.0651557,52.6416983 L94.0651557,59.6699938 C95.0435931,60.8012203 96.6625692,61.5034622 98.4049518,61.5034622 C101.401967,61.5034622 103.661482,59.2116267 103.661482,56.155846 C103.661482,53.1000654 101.369647,50.7788474 98.4049518,50.7788474 C96.6331867,50.7788474 95.0759139,51.4517068 94.0651557,52.6416983 Z" id="Shape" fill="#000000"></path>
                <path d="M117.077535,64.1919615 C112.493864,64.1919615 108.918013,60.6660608 108.918013,56.1264635 C108.918013,51.6338783 112.341075,48.1197306 116.710253,48.1197306 C120.988346,48.1197306 124.226298,51.6632608 124.226298,56.2469318 L124.226298,57.128407 L111.947349,57.128407 C112.340175,59.7194734 114.583406,61.6241513 117.203879,61.5916097 C118.635673,61.6198591 120.030983,61.1387895 121.141135,60.2341379 L123.09801,62.1616303 C121.39227,63.5251222 119.26064,64.2439881 117.077535,64.1919615 L117.077535,64.1919615 Z M111.973793,54.842448 L121.202838,54.842448 C120.744471,52.4595267 118.911003,50.6877616 116.64855,50.6877616 C114.297949,50.6877616 112.43216,52.3655027 111.973793,54.842448 Z" id="Shape" fill="#000000"></path>
                <path d="M127.12929,48.3636054 L130.185071,48.3636054 L130.185071,49.9208782 C131.425363,48.6867012 133.116548,48.0136247 134.865704,48.0580273 C138.441555,48.0580273 140.947883,50.5320343 140.947883,54.1402061 L140.947883,63.9187042 L137.892102,63.9187042 L137.892102,54.6514617 C137.892102,52.2068372 136.393594,50.7083294 134.042994,50.7083294 C132.493875,50.6561169 131.0312,51.4214829 130.190947,52.7239693 L130.190947,63.9098894 L127.135166,63.9098894 L127.12929,48.3636054 Z" id="Path" fill="#000000"></path>
                <path d="M144.855756,58.112721 C147.176974,60.3722357 149.556957,61.4740797 152.219012,61.4740797 C155.307114,61.4740797 157.413839,60.0049544 157.413839,57.8982287 C157.413839,56.003057 156.191527,55.0569403 153.076981,54.5368699 L149.50113,53.9492198 C145.590319,53.3086812 143.662826,51.4752128 143.662826,48.3900496 C143.662826,44.6614096 146.78031,42.2461676 151.549091,42.2461676 C154.660327,42.2548501 157.684613,43.2736005 160.16698,45.1491592 L158.40403,47.5937837 C156.082812,45.8308333 153.790976,44.9669876 151.408055,44.9669876 C148.625532,44.9669876 146.762681,46.2480649 146.762681,48.1432366 C146.762681,49.8856192 147.832204,50.7112676 150.582407,51.1696347 L154.02016,51.7132111 C158.542127,52.4477737 160.590088,54.3106246 160.590088,57.6426009 C160.590088,61.5857332 157.167026,64.2125293 152.069161,64.2125293 C148.621041,64.2069424 145.319041,62.8194671 142.901819,60.3604827 L144.855756,58.112721 Z" id="Path" fill="#000000"></path>
                <path d="M163.187502,42.5282396 L166.243282,41.8553802 L166.243282,49.9208782 C167.482152,48.6881949 169.170905,48.0152412 170.918039,48.0580273 C174.49389,48.0580273 177.000218,50.5320343 177.000218,54.1402061 L177.000218,63.9187042 L173.944437,63.9187042 L173.944437,54.6514617 C173.944437,52.2068372 172.445929,50.7083294 170.092391,50.7083294 C168.544304,50.6571637 167.082991,51.4224011 166.243282,52.7239693 L166.243282,63.9098894 L163.187502,63.9098894 L163.187502,42.5282396 Z" id="Path" fill="#000000"></path>
                <path d="M180.176467,43.9621059 C180.172555,43.4641462 180.366625,42.9850294 180.715981,42.6301635 C181.065337,42.2752975 181.541358,42.0737537 182.039318,42.0698725 C182.733665,42.0425167 183.387302,42.397352 183.742614,42.9945285 C184.097925,43.5917049 184.097925,44.3354452 183.742614,44.9326216 C183.387302,45.5297981 182.733665,45.8846334 182.039318,45.8572776 C181.540844,45.8533992 181.064374,45.6514512 180.714934,45.2959482 C180.365494,44.9404452 180.171771,44.4605723 180.176467,43.9621059 L180.176467,43.9621059 Z M183.570146,63.9187042 L180.514366,63.9187042 L180.514366,48.3636054 L183.570146,48.3636054 L183.570146,63.9187042 Z" id="Shape" fill="#000000"></path>
                <path d="M189.496598,48.3636054 L189.496598,46.0130049 C189.496598,42.7809292 191.359449,41.0032875 194.785449,41.0032875 C195.528115,40.9926065 196.268697,41.0845613 196.986199,41.2765448 L196.986199,43.9356617 C196.363607,43.7411422 195.713813,43.6478893 195.061645,43.6594661 C193.380965,43.6594661 192.555317,44.4234113 192.555317,46.0747081 L192.555317,48.3665436 L196.986199,48.3665436 L196.986199,50.9345747 L192.552379,50.9345747 L192.552379,63.9216424 L189.496598,63.9216424 L189.496598,50.9345747 L185.891364,50.9345747 L185.891364,48.3636054 L189.496598,48.3636054 Z" id="Path" fill="#000000"></path>
                <path d="M201.628635,50.9316364 L198.331918,50.9316364 L198.331918,48.3636054 L201.634511,48.3636054 L201.634511,44.3910905 L204.657971,43.6565279 L204.657971,48.3577289 L209.241642,48.3577289 L209.241642,50.9257599 L204.657971,50.9257599 L204.657971,59.3526627 C204.657971,60.9422563 205.301448,61.5240299 206.949807,61.5240299 C207.710615,61.5428012 208.468159,61.4182052 209.182877,61.1567486 L209.182877,63.7218414 C208.242742,64.0153717 207.264724,64.1697956 206.279885,64.1802085 C203.253487,64.1802085 201.634511,62.7463422 201.634511,60.0666576 L201.628635,50.9316364 Z" id="Path" fill="#000000"></path>
                <path d="M83.7401429,90.8830302 L85.2680333,92.4726238 C83.0638761,94.7449415 80.0273474,96.0185642 76.8616982,95.9985246 C72.877555,96.0635485 69.167911,93.9752628 67.156832,90.5353229 C65.1457531,87.095383 65.1457531,82.8383422 67.156832,79.3984023 C69.167911,75.9584624 72.877555,73.8701766 76.8616982,73.9352006 C80.1936744,73.9352006 83.2494551,75.2192161 85.3267983,77.4611013 L83.7695255,79.1123982 C81.9933085,77.1811656 79.4855199,76.0878082 76.8616982,76.1006913 C71.9136842,76.1006913 68.1527234,79.9497996 68.1527234,84.9624552 C68.1527234,89.9751108 71.9430667,93.8242191 76.9234015,93.8242191 C79.5090316,93.8504178 81.9851767,92.7820465 83.7401429,90.8830302 L83.7401429,90.8830302 Z" id="Path" fill="#000000"></path>
                <path d="M94.9231248,80.0350089 C99.262921,80.0350089 102.715366,83.5197741 102.715366,87.9682856 C102.715366,92.4167971 99.262921,95.9456361 94.9231248,95.9456361 C90.5833287,95.9456361 87.0985634,92.4608708 87.0985634,87.9682856 C87.0985634,83.4757004 90.5539462,80.0350089 94.9231248,80.0350089 Z M100.485233,87.9682856 C100.485233,84.6392476 98.0406088,82.0418341 94.9231248,82.0418341 C91.8056409,82.0418341 89.3404486,84.6392476 89.3404486,87.9682856 C89.3404486,91.2973236 91.7850732,93.9299961 94.9231248,93.9299961 C98.0611765,93.9299961 100.488172,91.3120148 100.488172,87.9800386 L100.485233,87.9682856 Z" id="Shape" fill="#000000"></path>
                <path d="M105.862232,80.340587 L108.127623,80.340587 L108.127623,82.1446729 C109.320553,80.7401891 110.97185,80.0350089 112.958107,80.0350089 C116.439934,80.0350089 118.855176,82.4502509 118.855176,85.9643987 L118.855176,95.6606258 L116.619167,95.6606258 L116.619167,86.4227658 C116.619167,83.7019457 114.967871,82.0153898 112.341075,82.0153898 C110.612034,81.9741903 108.996698,82.8740987 108.121747,84.3659903 L108.121747,95.6429962 L105.862232,95.6429962 L105.862232,80.340587 Z" id="Path" fill="#000000"></path>
                <path d="M123.92072,82.2710176 L120.621065,82.2710176 L120.621065,80.3464635 L123.92072,80.3464635 L123.92072,76.4591579 L126.150853,75.8715078 L126.150853,80.3317722 L130.766844,80.3317722 L130.766844,82.2710176 L126.150853,82.2710176 L126.150853,91.6528519 C126.150853,93.3041487 126.823712,93.9476256 128.501453,93.9476256 C129.265566,93.9720802 130.02631,93.8359471 130.734524,93.5480235 L130.734524,95.534281 C129.863871,95.8074421 128.955525,95.9413142 128.043086,95.9309448 C125.383969,95.9309448 123.929535,94.6498675 123.929535,92.2346255 L123.92072,82.2710176 Z" id="Path" fill="#000000"></path>
                <path d="M132.356438,91.3120148 C132.356438,88.4384057 134.707038,86.6372581 138.467999,86.6372581 C140.026038,86.626863 141.564788,86.982114 142.960584,87.6744605 L142.960584,85.6588206 C142.960584,83.2141961 141.553162,81.9625013 138.894046,81.9625013 C137.398476,81.9625013 135.929351,82.3591651 134.095882,83.3052819 L133.240851,81.5628992 C135.441601,80.493376 137.245687,80.0350089 139.117353,80.0350089 C142.998782,80.0350089 145.167211,81.9301806 145.167211,85.3532425 L145.167211,95.651811 L142.969399,95.651811 L142.969399,94.1533032 C141.595537,95.3358419 139.830512,95.9643374 138.018447,95.9162536 C134.648273,95.9250683 132.356438,94.0622174 132.356438,91.3120148 Z M138.406296,94.1533032 C140.239764,94.1533032 141.735334,93.6038503 142.960584,92.3903528 L142.960584,89.5167437 C141.705951,88.6617128 140.301468,88.2944314 138.526764,88.2944314 C136.08214,88.2944314 134.524867,89.4697317 134.524867,91.2591263 C134.524867,92.9633117 136.11446,94.1533032 138.406296,94.1533032 L138.406296,94.1533032 Z" id="Shape" fill="#000000"></path>
                <path d="M148.549137,75.8803225 C148.552359,75.0378301 149.234535,74.355654 150.077027,74.3524322 C150.483452,74.3484668 150.874385,74.5081668 151.161784,74.7955659 C151.449183,75.082965 151.608883,75.4738981 151.604918,75.8803225 C151.603301,76.7234824 150.920187,77.406596 150.077027,77.4082128 C149.239123,77.3940746 148.563275,76.7182269 148.549137,75.8803225 L148.549137,75.8803225 Z M151.208254,95.651811 L148.948739,95.651811 L148.948739,80.340587 L151.208254,80.340587 L151.208254,95.651811 Z" id="Shape" fill="#000000"></path>
                <path d="M155.0603,80.340587 L157.319815,80.340587 L157.319815,82.1446729 C158.512745,80.7401891 160.161104,80.0350089 162.150299,80.0350089 C165.632126,80.0350089 168.047368,82.4502509 168.047368,85.9643987 L168.047368,95.6606258 L165.817236,95.6606258 L165.817236,86.4227658 C165.817236,83.7019457 164.165939,82.0153898 161.539143,82.0153898 C159.810102,81.9741903 158.194766,82.8740987 157.319815,84.3659903 L157.319815,95.6429962 L155.0603,95.6429962 L155.0603,80.340587 Z" id="Path" fill="#000000"></path>
                <path d="M179.015858,95.9250683 C176.909547,95.9475877 174.883647,95.1173585 173.398886,93.6231899 C171.914126,92.1290213 171.096709,90.0979187 171.132531,87.9917916 C171.132531,83.5844157 174.464508,80.1084652 178.680897,80.1084652 C182.744498,80.1084652 185.923685,83.5932304 185.923685,87.9917916 L185.923685,88.6969718 L173.356787,88.6969718 C173.694686,91.7204317 176.077607,93.9535021 179.101067,93.9535021 C180.690661,93.9535021 182.280254,93.4334318 183.320395,92.5460801 L184.724879,94.0445879 C183.090912,95.3020641 181.077283,95.9653285 179.015858,95.9250683 L179.015858,95.9250683 Z M173.433182,86.8811329 L183.670047,86.8811329 C183.273383,84.1603128 181.163719,82.0829696 178.628009,82.0829696 C175.960077,82.0829696 173.853352,84.069227 173.424367,86.8811329 L173.433182,86.8811329 Z" id="Shape" fill="#000000"></path>
                <path d="M189.070552,80.340587 L191.330066,80.340587 L191.330066,82.5119542 C192.177051,80.9440143 193.826294,79.9778024 195.608159,80.0056264 C196.095948,79.9926147 196.582242,80.0652108 197.044964,80.2201187 L197.044964,82.2974619 C196.533567,82.1198656 195.996701,82.0265838 195.45537,82.0212663 C193.563137,82.0212663 192.126332,83.1231103 191.341819,85.171071 L191.341819,95.651811 L189.082305,95.651811 L189.070552,80.340587 Z" id="Path" fill="#000000"></path>
                <path d="M206.64129,74.2613464 L215.929101,74.2613464 C220.116108,74.2613464 222.836928,76.7059709 222.836928,80.4316727 C222.836928,84.1573745 220.086725,86.6372581 215.929101,86.6372581 L208.991891,86.6372581 L208.991891,95.651811 L206.64129,95.651811 L206.64129,74.2613464 Z M208.991891,76.3680721 L208.991891,84.5951739 L215.749867,84.5951739 C218.652859,84.5951739 220.486327,83.0055803 220.486327,80.481623 C220.486327,77.9576657 218.652859,76.3857016 215.749867,76.3857016 L208.991891,76.3680721 Z" id="Shape" fill="#000000"></path>
                <polygon id="Path" fill="#000000" points="228.243309 95.651811 225.983794 95.651811 225.983794 74.2613464 228.243309 73.7500908"></polygon>
                <path d="M231.269707,91.3120148 C231.269707,88.4384057 233.620308,86.6372581 237.381268,86.6372581 C238.939343,86.6265344 240.478168,86.9818028 241.873854,87.6744605 L241.873854,85.6588206 C241.873854,83.2141961 240.466432,81.9625013 237.807315,81.9625013 C236.311745,81.9625013 234.845558,82.3591651 233.01209,83.3052819 L232.154121,81.5628992 C234.35487,80.493376 236.158956,80.0350089 238.030622,80.0350089 C241.912051,80.0350089 244.083418,81.9301806 244.083418,85.3532425 L244.083418,95.651811 L241.882668,95.651811 L241.882668,94.1533032 C240.508951,95.3360901 238.743827,95.964621 236.931716,95.9162536 C233.561543,95.9250683 231.269707,94.0622174 231.269707,91.3120148 Z M237.319565,94.1533032 C239.153034,94.1533032 240.651541,93.6038503 241.873854,92.3903528 L241.873854,89.5167437 C240.619221,88.6617128 239.214737,88.2944314 237.442972,88.2944314 C234.998347,88.2944314 233.438136,89.4697317 233.438136,91.2591263 C233.438136,92.9633117 235.02773,94.1533032 237.319565,94.1533032 Z" id="Shape" fill="#000000"></path>
                <path d="M249.146024,82.2710176 L245.846368,82.2710176 L245.846368,80.3464635 L249.146024,80.3464635 L249.146024,76.4591579 L251.376156,75.8715078 L251.376156,80.3317722 L255.992148,80.3317722 L255.992148,82.2710176 L251.376156,82.2710176 L251.376156,91.6528519 C251.376156,93.3041487 252.049016,93.9476256 253.726757,93.9476256 C254.489899,93.9718422 255.249635,93.8357103 255.956889,93.5480235 L255.956889,95.534281 C255.087297,95.8076662 254.179881,95.9415472 253.26839,95.9309448 C250.609273,95.9309448 249.154839,94.6498675 249.154839,92.2346255 L249.146024,82.2710176 Z" id="Path" fill="#000000"></path>
                <path d="M260.916656,80.340587 L260.916656,77.4375953 C260.916656,74.443518 262.597335,72.7922211 265.653116,72.7922211 C266.349622,72.7624769 267.045907,72.8559781 267.709891,73.0684167 L267.709891,75.0840566 C267.098285,74.8839749 266.458199,74.7847367 265.81472,74.7902315 C264.010634,74.7902315 263.170294,75.6482007 263.170294,77.5110516 L263.170294,80.35234 L267.724583,80.35234 L267.724583,82.2710176 L263.170294,82.2710176 L263.170294,95.6576875 L260.916656,95.6576875 L260.916656,82.2710176 L257.305546,82.2710176 L257.305546,80.3464635 L260.916656,80.340587 Z" id="Path" fill="#000000"></path>
                <path d="M276.46294,80.0350089 C280.802736,80.0350089 284.258119,83.5197741 284.258119,87.9682856 C284.258119,92.4167971 280.802736,95.9456361 276.46294,95.9456361 C272.123144,95.9456361 268.641317,92.4608708 268.641317,87.9682856 C268.641317,83.4757004 272.082008,80.0350089 276.46294,80.0350089 Z M282.025048,87.9682856 C282.025048,84.6392476 279.580424,82.0418341 276.46294,82.0418341 C273.345456,82.0418341 270.880264,84.6392476 270.880264,87.9682856 C270.880264,91.2973236 273.324888,93.9299961 276.46294,93.9299961 C279.600992,93.9299961 282.025048,91.3120148 282.025048,87.9800386 L282.025048,87.9682856 Z" id="Shape" fill="#000000"></path>
                <path d="M287.402047,80.340587 L289.6645,80.340587 L289.6645,82.5119542 C290.511484,80.9440143 292.160728,79.9778024 293.942593,80.0056264 C294.430382,79.9926147 294.916676,80.0652108 295.379398,80.2201187 L295.379398,82.2974619 C294.868001,82.1198656 294.331135,82.0265838 293.789804,82.0212663 C291.894632,82.0212663 290.460766,83.1231103 289.676253,85.171071 L289.676253,95.651811 L287.4138,95.651811 L287.402047,80.340587 Z" id="Path" fill="#000000"></path>
                <path d="M297.976811,80.340587 L300.236326,80.340587 L300.236326,82.0212663 C301.36047,80.719306 303.009376,79.9902933 304.728911,80.0350089 C306.732031,79.9889289 308.594271,81.0616425 309.559395,82.8175322 C310.694026,81.0248514 312.69252,79.9663646 314.812987,80.0350089 C318.144963,80.0350089 320.436799,82.4502509 320.436799,85.9643987 L320.436799,95.6606258 L318.212543,95.6606258 L318.212543,86.4227658 C318.212543,83.7019457 316.684653,82.0153898 314.240028,82.0153898 C312.559349,82.0153898 311.151927,82.8704208 310.176428,84.5217176 C310.274527,84.9944011 310.324731,85.475769 310.326279,85.9585222 L310.326279,95.6547492 L308.096146,95.6547492 L308.096146,86.4227658 C308.096146,83.7019457 306.568256,82.0153898 304.155952,82.0153898 C302.504655,82.0153898 301.191257,82.779335 300.242202,84.2484603 L300.242202,95.6459345 L297.982688,95.6459345 L297.976811,80.340587 Z" id="Path" fill="#000000"></path>
                <path d="M37.315783,24.3874802 C40.9915345,24.3874802 46.3097682,23.6294116 46.3097682,19.2572946 C46.3207577,18.9198654 46.2901657,18.5823665 46.2186824,18.2524129 L44.0296857,8.74423387 C43.5243066,6.65219943 43.0806307,5.70314447 39.4078174,3.86673783 C36.5488996,2.40642727 30.340376,0 28.5010311,0 C26.7909692,0 26.2826519,2.21544097 24.2552589,2.21544097 C22.2925075,2.21544097 20.8351352,0.570020622 18.9987286,0.570020622 C17.2357782,0.570020622 16.0869222,1.77176513 15.1995705,4.24283391 C15.1995705,4.24283391 12.7285017,11.2123644 12.4111707,12.2231226 C12.3587512,12.4084252 12.3349704,12.6006529 12.3406526,12.7931432 C12.3406526,15.5022103 23.0153172,24.3874802 37.315783,24.3874802 M46.8797888,21.031998 C47.3881062,23.4384253 47.3881062,23.6911148 47.3881062,24.0084459 C47.3881062,28.1219968 42.7632997,30.4050175 36.6840591,30.4050175 C22.9183549,30.4020793 10.8950333,22.3600873 10.8950333,17.0418537 C10.8942391,16.3011698 11.045237,15.5681801 11.3387092,14.8881159 C6.39657162,15.1378672 0,16.0252189 0,21.6607836 C0,30.9103966 21.9164114,42.3108091 39.2697197,42.3108091 C52.5741185,42.3108091 55.9296007,36.2932718 55.9296007,31.5421205 C55.9296007,27.8046657 52.697525,23.5618318 46.870974,21.0290598" id="Shape" fill="#EE0000"></path>
                <path d="M46.870974,21.0290598 C47.3792914,23.435487 47.3792914,23.6881766 47.3792914,24.0055076 C47.3792914,28.1190585 42.7544849,30.4020793 36.6752444,30.4020793 C22.9183549,30.4020793 10.8950302,22.3600873 10.8950302,17.0418537 C10.8942391,16.3011698 11.045237,15.5681801 11.3387092,14.8881159 L12.4141089,12.2260609 C12.3609938,12.4102666 12.3362247,12.6014837 12.3406526,12.7931432 C12.3406526,15.5022103 23.0153172,24.3874802 37.315783,24.3874802 C40.9915345,24.3874802 46.3097682,23.6294116 46.3097682,19.2572946 C46.3207577,18.9198654 46.2901657,18.5823665 46.2186824,18.2524129 L46.870974,21.0290598 Z" id="Path" fill="#000000"></path>
                <path d="M169.940616,26.7352808 C169.940616,30.2288608 172.041465,31.9271697 175.872944,31.9271697 C177.052602,31.897801 178.22491,31.7321595 179.366524,31.4335436 L179.366524,27.3846342 C178.636858,27.615871 177.875359,27.7308892 177.109948,27.7254713 C175.532107,27.7254713 174.947395,27.2318452 174.947395,25.7480286 L174.947395,19.5365668 L179.519313,19.5365668 L179.519313,15.3642509 L174.947395,15.3642509 L174.947395,10.0753997 L169.952369,11.156676 L169.952369,15.3642509 L166.638022,15.3642509 L166.638022,19.5365668 L169.943554,19.5365668 L169.940616,26.7352808 Z M154.367888,26.8293048 C154.367888,25.7480286 155.452102,25.2220817 157.088708,25.2220817 C158.089066,25.2278966 159.085215,25.3521686 160.056341,25.5923013 L160.056341,27.6931505 C159.10193,28.2143977 158.02917,28.4805637 156.941795,28.4659104 C155.33751,28.4659104 154.376702,27.8488778 154.376702,26.8293048 M155.904593,31.9888729 C157.667543,31.9888729 159.089656,31.6186533 160.417746,30.7224869 L160.417746,31.7126774 L165.359883,31.7126774 L165.359883,21.2348756 C165.359883,17.2506078 162.674322,15.0645493 158.19349,15.0645493 C155.6901,15.0645493 153.216093,15.6521994 150.554038,16.8568822 L152.346371,20.535572 C154.262111,19.7304913 155.872272,19.2368652 157.291447,19.2368652 C159.348223,19.2368652 160.411869,20.0390076 160.411869,21.6785515 L160.411869,22.4806939 C159.200932,22.1672339 157.954636,22.0111999 156.703797,22.0164503 C152.49916,22.0164503 149.966388,23.7794007 149.966388,26.9321436 C149.966388,29.8057527 152.252347,31.9976877 155.898716,31.9976877 M128.737527,31.7214921 L134.052823,31.7214921 L134.052823,23.2446391 L142.952784,23.2446391 L142.952784,31.7126774 L148.268079,31.7126774 L148.268079,10.0812762 L142.964537,10.0812762 L142.964537,18.3935873 L134.064576,18.3935873 L134.064576,10.0812762 L128.74928,10.0812762 L128.737527,31.7214921 Z M108.495919,23.5237729 C108.495919,21.1731724 110.349955,19.3808395 112.791641,19.3808395 C114.063969,19.353599 115.299836,19.8068203 116.252901,20.6501637 L116.252901,26.3533082 C115.318397,27.2302967 114.072386,27.6978151 112.791641,27.652015 C110.382276,27.652015 108.495919,25.8596821 108.495919,23.5120199 M116.314604,31.7009244 L121.25968,31.7009244 L121.25968,9 L116.264654,10.0812762 L116.264654,16.2310348 C114.99309,15.5101608 113.553972,15.1372061 112.092338,15.1497586 C107.33531,15.1497586 103.594917,18.8255101 103.594917,23.5237729 C103.564949,25.7501144 104.430674,27.8951553 105.997601,29.4770004 C107.564528,31.0588454 109.70127,31.9448558 111.927796,31.9360684 C113.504093,31.9435023 115.041395,31.4461702 116.314604,30.5168094 L116.314604,31.7009244 Z M93.6342472,19.1545942 C95.2091495,19.1545942 96.5372388,20.1741671 97.0631857,21.7490695 L90.2435059,21.7490695 C90.7371321,20.1124639 91.9741356,19.1545942 93.6430619,19.1545942 M85.1985296,23.5531554 C85.1985296,28.3131214 89.0917117,32.0211937 94.0955525,32.0211937 C96.8457551,32.0211937 98.8555185,31.2778163 100.926985,29.5471867 L97.618515,26.608936 C96.8457551,27.4140167 95.7027756,27.8459395 94.3453038,27.8459395 C92.5979652,27.8951541 91.0004875,26.8640337 90.325777,25.2514642 L101.975941,25.2514642 L101.975941,24.017399 C101.975941,18.8255101 98.485299,15.0880553 93.7253329,15.0880553 C91.4648605,15.0539477 89.2861815,15.9330244 87.6823589,17.5263392 C86.0785363,19.119654 85.1851577,21.2925076 85.2044061,23.5531554 M76.5777023,14.6238117 C78.3406526,14.6238117 79.3279049,15.7344704 79.3279049,17.065498 C79.3279049,18.3965255 78.3377144,19.5071843 76.5777023,19.5071843 L71.3241101,19.5071843 L71.3241101,14.6238117 L76.5777023,14.6238117 Z M66,31.7126774 L71.3152954,31.7126774 L71.3152954,23.8322892 L75.3612665,23.8322892 L79.4424966,31.7126774 L85.3748247,31.7126774 L80.6148586,23.0595293 C83.0896658,22.0530349 84.7040434,19.6430995 84.6931505,16.971474 C84.6931505,13.0782919 81.6344316,10.0812762 77.0536989,10.0812762 L66.0088148,10.0812762 L66,31.7126774 Z" id="Shape" fill="#000000"></path>
            </g>
        </g>
    </g>
</svg>