<?xml version="1.0" encoding="UTF-8"?>
<svg width="320px" height="320px" viewBox="0 0 320 320" version="1.1" xmlns="http://www.w3.org/2000/svg" xmlns:xlink="http://www.w3.org/1999/xlink">
    <title>Illustration - Edge@2x</title>
    <g id="Symbols" stroke="none" stroke-width="1" fill="none" fill-rule="evenodd">
        <g id="Sidebar" transform="translate(-80.000000, -380.000000)" fill-rule="nonzero">
            <g id="Illustration---Edge" transform="translate(80.000000, 380.000000)">
                <path d="M227.376562,160.082496 L227.376562,160.082496 C227.376562,160.560009 227.762552,160.945999 228.240065,160.945999 C228.717578,160.945999 229.103568,160.560009 229.103568,160.082496 L229.103568,160.082496 C229.103568,159.604982 228.717578,159.218992 228.240065,159.218992 C227.762552,159.218992 227.376562,159.604982 227.376562,160.082496 L227.376562,160.082496 Z M225.936063,146.16298 L225.936063,146.16298 C226.035545,146.628556 226.493162,146.927002 226.958737,146.831499 C227.424313,146.732017 227.722759,146.2744 227.627256,145.808824 L227.627256,145.808824 C227.527774,145.343249 227.070157,145.044803 226.604582,145.140306 C226.139006,145.239788 225.84056,145.697405 225.936063,146.16298 L225.936063,146.16298 Z M220.353135,130.106592 L220.353135,130.106592 C220.564037,130.532375 221.085323,130.707463 221.511105,130.496562 C221.936888,130.28566 222.111976,129.764374 221.901075,129.338592 L221.901075,129.338592 C221.690173,128.912809 221.168887,128.737721 220.743105,128.948622 C220.317322,129.159524 220.142234,129.68081 220.353135,130.106592 L220.353135,130.106592 Z M210.914287,115.968217 L210.914287,115.968217 C211.22865,116.330331 211.773811,116.366145 212.131946,116.055761 C212.494061,115.741398 212.529874,115.196237 212.219491,114.838102 L212.219491,114.838102 C211.905128,114.475987 211.359967,114.440174 211.001831,114.750558 C210.639717,115.064921 210.603904,115.610082 210.914287,115.968217 L210.914287,115.968217 Z M198.244265,104.623294 L198.244265,104.623294 C198.638214,104.893885 199.175416,104.794403 199.446007,104.404434 C199.716598,104.010486 199.617116,103.473283 199.227147,103.202692 L199.227147,103.202692 C198.833199,102.932101 198.295996,103.031583 198.025405,103.421552 C197.754814,103.815501 197.854296,104.352703 198.244265,104.623294 L198.244265,104.623294 Z M183.138925,96.8079919 L183.138925,96.8079919 C183.588584,96.9711423 184.082014,96.7403441 184.245164,96.294665 C184.408315,95.8450065 184.177517,95.351576 183.731838,95.1884256 L183.731838,95.1884256 C183.282179,95.0252752 182.788749,95.2560733 182.625598,95.7017525 C182.462448,96.151411 182.693246,96.6448415 183.138925,96.8079919 L183.138925,96.8079919 Z M166.549314,93.0515532 L166.549314,93.0515532 C167.022848,93.0953253 167.444652,92.749128 167.492403,92.2755939 C167.536175,91.8020598 167.189978,91.3802563 166.716444,91.332505 L166.716444,91.332505 C166.24291,91.2887329 165.821106,91.6349301 165.773355,92.1084642 C165.729583,92.5819984 166.07578,93.0038019 166.549314,93.0515532 L166.549314,93.0515532 Z M149.549837,93.548963 L149.549837,93.548963 C150.019392,93.4733567 150.341714,93.0356361 150.270087,92.562102 C150.19448,92.0925471 149.75676,91.7702256 149.283226,91.8418526 L149.283226,91.8418526 C148.813671,91.9134796 148.491349,92.3551795 148.562976,92.8287136 C148.634603,93.2982684 149.076303,93.62059 149.549837,93.548963 L149.549837,93.548963 Z M133.222859,98.2843041 L133.222859,98.2843041 C133.660579,98.0932988 133.859543,97.5839511 133.672517,97.1502098 C133.481512,96.7124892 132.972164,96.5135253 132.538423,96.7005514 L132.538423,96.7005514 C132.100702,96.8915567 131.901738,97.4009043 132.088764,97.8346457 C132.27977,98.2723663 132.789117,98.4713302 133.226838,98.2843041 L133.226838,98.2843041 L133.222859,98.2843041 Z M118.614928,106.975048 L118.614928,106.975048 C118.98898,106.680581 119.056628,106.139399 118.766141,105.761368 C118.471674,105.387316 117.930492,105.319668 117.552461,105.610155 L117.552461,105.610155 C117.178409,105.904622 117.110761,106.445804 117.405227,106.823835 C117.699694,107.197887 118.240876,107.265535 118.618907,106.971069 L118.618907,106.971069 L118.614928,106.975048 Z M106.633321,119.04022 L106.633321,119.04022 C106.923808,118.662188 106.852181,118.121006 106.47415,117.830519 C106.096119,117.540032 105.554937,117.611659 105.264449,117.98969 L105.264449,117.98969 C104.973962,118.367722 105.045589,118.908903 105.423621,119.199391 C105.801652,119.489878 106.342834,119.418251 106.633321,119.04022 L106.633321,119.04022 Z M98.0420594,133.715798 L98.0420594,133.715798 C98.2290855,133.278077 98.0261423,132.76873 97.5844424,132.581703 C97.1467218,132.394677 96.6373741,132.597621 96.4503481,133.03932 L96.4503481,133.03932 C96.263322,133.477041 96.4662652,133.986389 96.9079651,134.173415 C97.3456857,134.360441 97.8550333,134.157498 98.0420594,133.715798 L98.0420594,133.715798 Z M93.4221173,150.082569 L93.4221173,150.082569 C93.4937443,149.609035 93.1674435,149.171315 92.6939094,149.099688 C92.2203753,149.028061 91.7826547,149.354361 91.7110277,149.827895 L91.7110277,149.827895 C91.6394006,150.30143 91.9657015,150.73915 92.4392356,150.810777 C92.9127697,150.882404 93.3504903,150.556103 93.4221173,150.082569 L93.4221173,150.082569 Z M93.0440859,167.082046 L93.0440859,167.082046 C92.9963345,166.608512 92.5705518,166.262315 92.0970176,166.310066 C91.6234835,166.357817 91.2772863,166.7836 91.3250377,167.257134 L91.3250377,167.257134 C91.372789,167.730668 91.7985718,168.076866 92.2721059,168.029114 C92.74564,167.981363 93.0918372,167.55558 93.0440859,167.082046 L93.0440859,167.082046 Z M96.9199029,183.635844 L96.9199029,183.635844 C96.7527732,183.190164 96.2553634,182.963346 95.8096843,183.130475 C95.3640051,183.297605 95.1371862,183.795015 95.3043159,184.240694 C95.4714456,184.686373 95.9688554,184.913192 96.4145346,184.746062 C96.8602137,184.578933 97.0870326,184.081523 96.9199029,183.635844 Z M104.834687,198.677515 L104.834687,198.677515 C104.560117,198.287546 104.022915,198.192043 103.632945,198.466614 C103.242976,198.741184 103.147473,199.278386 103.422044,199.668356 L103.422044,199.668356 C103.696614,200.058325 104.233816,200.153828 104.623786,199.879257 C105.013755,199.604687 105.109258,199.067485 104.834687,198.677515 L104.834687,198.677515 Z M116.263175,211.267952 L116.263175,211.267952 C115.90106,210.957568 115.355899,211.00134 115.045515,211.363455 C114.735132,211.725569 114.778904,212.27073 115.141018,212.581114 L115.141018,212.581114 C115.503132,212.891497 116.048294,212.847725 116.358677,212.485611 C116.669061,212.123497 116.625289,211.578336 116.263175,211.267952 L116.263175,211.267952 Z M130.473177,220.611297 L130.473177,220.611297 C130.043415,220.400395 129.526109,220.579463 129.319187,221.009225 C129.108285,221.438987 129.287352,221.956293 129.717114,222.163216 L129.717114,222.163216 C130.146876,222.374118 130.664183,222.19505 130.871105,221.765288 C131.082007,221.335526 130.902939,220.81822 130.473177,220.611297 L130.473177,220.611297 Z M146.573337,226.082805 L146.573337,226.082805 C146.107762,225.987302 145.650145,226.289727 145.554642,226.759282 C145.459139,227.224858 145.761564,227.682475 146.231119,227.777977 C146.696695,227.87348 147.154312,227.571055 147.249814,227.1015 C147.345317,226.635925 147.042892,226.178308 146.573337,226.082805 Z M163.533021,227.336278 L163.533021,227.336278 C163.055508,227.360153 162.689414,227.76604 162.71329,228.243553 C162.737165,228.721066 163.143052,229.08716 163.620565,229.063284 L163.620565,229.063284 C164.098079,229.039409 164.464172,228.633522 164.440296,228.156009 C164.416421,227.678495 164.010534,227.312402 163.533021,227.336278 L163.533021,227.336278 Z M180.265886,224.331922 L180.265886,224.331922 C179.812248,224.475176 179.557575,224.960648 179.700829,225.414286 C179.844083,225.867924 180.329555,226.122598 180.783192,225.979344 L180.783192,225.979344 C181.23683,225.83609 181.491504,225.350618 181.34825,224.89698 C181.204996,224.443342 180.719524,224.188668 180.265886,224.331922 L180.265886,224.331922 Z M195.705486,217.209014 L195.705486,217.209014 C195.299599,217.463688 195.180221,217.992932 195.430916,218.398819 C195.685589,218.804705 196.214833,218.924083 196.62072,218.673389 L196.62072,218.673389 C197.026606,218.418715 197.145985,217.885492 196.89529,217.483585 C196.640616,217.077698 196.111372,216.95832 195.705486,217.209014 L195.705486,217.209014 Z M208.868938,206.449046 L208.868938,206.449046 C208.538658,206.795243 208.554575,207.340404 208.900773,207.670684 C209.24697,208.000964 209.792131,207.985047 210.122411,207.63885 L210.122411,207.63885 C210.452691,207.292653 210.436774,206.747492 210.090577,206.417212 C209.74438,206.086932 209.199218,206.102849 208.868938,206.449046 L208.868938,206.449046 Z M218.936512,192.744412 L218.936512,192.744412 C218.705714,193.162236 218.852947,193.6875 219.270772,193.918299 C219.688596,194.149097 220.213861,193.997884 220.444659,193.584039 L220.444659,193.584039 C220.675457,193.166215 220.524244,192.64095 220.110399,192.410152 C219.692575,192.179354 219.16731,192.330567 218.936512,192.744412 L218.936512,192.744412 Z M225.243668,176.950656 L225.243668,176.950656 C225.12429,177.412252 225.40284,177.881807 225.864436,178.001186 C226.326032,178.120564 226.795587,177.842014 226.914965,177.380418 L226.914965,177.380418 C227.034344,176.918822 226.755794,176.449267 226.294198,176.329889 C225.832602,176.21051 225.363047,176.48906 225.243668,176.950656 L225.243668,176.950656 Z" id="Shape" fill="#AAAAAA"></path>
                <path d="M164.718846,259.349571 L164.718846,259.349571 C164.002576,259.381405 163.453435,259.990235 163.48527,260.706505 C163.517104,261.422775 164.125934,261.971916 164.842204,261.940081 L164.842204,261.940081 C165.558474,261.908247 166.107614,261.299417 166.07578,260.583147 C166.043946,259.866877 165.435116,259.317737 164.718846,259.349571 L164.718846,259.349571 Z M175.498711,258.259249 L175.498711,258.259249 C174.790399,258.370669 174.308907,259.031229 174.420326,259.73954 C174.531746,260.447852 175.192306,260.929345 175.900618,260.817925 C176.608929,260.706505 177.090422,260.045945 176.979002,259.337633 C176.867583,258.629322 176.207022,258.147829 175.498711,258.259249 Z M190.409066,254.729629 L190.409066,254.729629 C189.72861,254.948489 189.350578,255.676697 189.569439,256.357154 C189.788299,257.03761 190.516507,257.415642 191.196964,257.196782 L191.196964,257.196782 C191.87742,256.977921 192.255452,256.249713 192.036591,255.569257 C191.817731,254.8888 191.089523,254.510769 190.409066,254.729629 L190.409066,254.729629 Z M204.595193,248.9358 L204.595193,248.9358 C203.95453,249.258121 203.695877,250.034081 204.018198,250.674745 C204.34052,251.315408 205.116479,251.570082 205.757143,251.25174 L205.757143,251.25174 C206.397807,250.929418 206.65248,250.153459 206.334138,249.512795 C206.011817,248.872131 205.235857,248.617458 204.595193,248.9358 L204.595193,248.9358 Z M217.710895,241.021015 L217.710895,241.021015 C217.12992,241.43486 216.994625,242.246633 217.408469,242.827608 C217.822314,243.408582 218.634087,243.543878 219.215062,243.130033 L219.215062,243.130033 C219.796036,242.716188 219.931332,241.904415 219.517487,241.323441 C219.103642,240.742466 218.291869,240.607171 217.710895,241.021015 L217.710895,241.021015 Z M229.461703,231.18424 L229.461703,231.18424 C228.948376,231.685629 228.940418,232.50536 229.441807,233.014708 C229.943196,233.528034 230.762927,233.535993 231.272275,233.034604 C231.785602,232.533215 231.79356,231.713484 231.292171,231.204136 C230.790782,230.690809 229.971051,230.682851 229.461703,231.18424 Z M239.56907,219.664229 L239.56907,219.664229 C239.139308,220.237245 239.254707,221.049018 239.827723,221.47878 C240.400739,221.908542 241.212512,221.793143 241.642274,221.220127 L241.642274,221.220127 C242.072036,220.647111 241.956637,219.835338 241.383621,219.405576 C240.810605,218.975814 239.998832,219.091213 239.56907,219.664229 L239.56907,219.664229 Z M247.798218,206.731575 L247.798218,206.731575 C247.459979,207.36428 247.702715,208.148198 248.331441,208.482457 C248.964146,208.820696 249.748064,208.57796 250.082323,207.949234 L250.082323,207.949234 C250.420562,207.316529 250.177826,206.532611 249.5491,206.198351 C248.916395,205.860113 248.132477,206.102849 247.798218,206.731575 L247.798218,206.731575 Z M253.938244,192.684722 L253.938244,192.684722 C253.703467,193.3612 254.061602,194.097366 254.738079,194.332144 C255.414556,194.566921 256.150723,194.208786 256.3855,193.532309 L256.3855,193.532309 C256.620277,192.855831 256.262142,192.119665 255.585665,191.884887 C254.909188,191.65011 254.173021,192.008245 253.938244,192.684722 L253.938244,192.684722 Z M257.829978,177.853952 L257.829978,177.853952 C257.702641,178.558285 258.172196,179.230783 258.872549,179.358119 C259.576881,179.485456 260.249379,179.015902 260.376716,178.315549 L260.376716,178.315549 C260.504053,177.611216 260.034498,176.938718 259.334145,176.811381 C258.629813,176.684044 257.957315,177.153599 257.829978,177.853952 L257.829978,177.853952 Z M259.381897,162.609337 L259.381897,162.609337 C259.365979,163.325607 259.931037,163.91852 260.647307,163.934437 C261.363577,163.950354 261.95649,163.385297 261.972407,162.669026 L261.972407,162.669026 C261.988324,161.952756 261.423266,161.359844 260.706996,161.343927 C259.990726,161.32801 259.397814,161.893067 259.381897,162.609337 L259.381897,162.609337 Z M258.59002,147.301054 L258.59002,147.301054 C258.681544,148.009365 259.330166,148.510754 260.038478,148.419231 C260.746789,148.327708 261.248178,147.679085 261.156655,146.970774 L261.156655,146.970774 C261.065131,146.262462 260.416509,145.761073 259.708197,145.852596 C258.999886,145.94412 258.498497,146.592742 258.59002,147.301054 L258.59002,147.301054 Z M255.470266,132.299175 L255.470266,132.299175 C255.66923,132.98759 256.389479,133.381538 257.073915,133.182574 C257.76233,132.983611 258.156279,132.263361 257.957315,131.578925 L257.957315,131.578925 C257.758351,130.89051 257.038102,130.496562 256.353666,130.695526 C255.665251,130.894489 255.271302,131.614739 255.470266,132.299175 L255.470266,132.299175 Z M250.066406,117.957856 L250.066406,117.957856 C250.368831,118.606478 251.140811,118.885028 251.789434,118.582603 C252.438056,118.280177 252.716606,117.508197 252.41418,116.859575 C252.111755,116.210953 251.339775,115.932403 250.691153,116.234828 C250.042531,116.537254 249.763981,117.309233 250.066406,117.957856 Z M242.513736,104.631253 L242.513736,104.631253 C242.911664,105.224165 243.719457,105.383337 244.31237,104.981429 C244.905282,104.583502 245.064453,103.775708 244.662546,103.182796 L244.662546,103.182796 C244.264618,102.589883 243.456825,102.430712 242.863913,102.832619 C242.271,103.230547 242.111829,104.03834 242.513736,104.631253 L242.513736,104.631253 Z M232.999282,92.6178119 L232.999282,92.6178119 C233.484754,93.1430766 234.304485,93.1749108 234.82975,92.6894389 C235.355014,92.2039669 235.386849,91.3842356 234.901377,90.8589709 L234.901377,90.8589709 C234.415905,90.3337061 233.596173,90.3018719 233.070909,90.7873439 C232.545644,91.2728158 232.51381,92.0925471 232.999282,92.6178119 L232.999282,92.6178119 Z M221.757821,82.2000614 L221.757821,82.2000614 C222.318899,82.6457405 223.134651,82.5502378 223.576351,81.9891596 C224.02203,81.4280814 223.926527,80.6123293 223.365449,80.1706294 C222.804371,79.7249503 221.988619,79.820453 221.546919,80.3815312 C221.10124,80.9426094 221.196742,81.7583615 221.757821,82.2000614 Z M209.051985,73.6247167 L209.051985,73.6247167 C209.672753,73.9788725 210.464629,73.7600122 210.818785,73.1392448 C211.17294,72.5184773 210.95408,71.726601 210.333313,71.3724452 L210.333313,71.3724452 C209.712545,71.0182894 208.920669,71.2371497 208.566513,71.8579172 C208.212357,72.4786846 208.431218,73.2705609 209.051985,73.6247167 L209.051985,73.6247167 Z M195.176242,67.1026796 L195.176242,67.1026796 C195.844761,67.3573534 196.592865,67.0191148 196.847539,66.350596 C197.102212,65.6820773 196.763974,64.933973 196.095455,64.6792992 L196.095455,64.6792992 C195.426936,64.4246254 194.678832,64.762864 194.424158,65.4313828 C194.169484,66.0999015 194.507723,66.8480058 195.176242,67.1026796 L195.176242,67.1026796 Z M180.456892,62.8050591 L180.456892,62.8050591 C181.157244,62.9522924 181.84168,62.502634 181.988914,61.802281 C182.136147,61.101928 181.686488,60.4135129 180.986136,60.2702588 L180.986136,60.2702588 C180.285783,60.1230256 179.601347,60.572684 179.454113,61.273037 C179.30688,61.9733899 179.756539,62.6578258 180.456892,62.8050591 L180.456892,62.8050591 Z M165.260028,60.8392956 L165.260028,60.8392956 C165.976298,60.8751091 166.585127,60.3259687 166.620941,59.6136779 C166.656754,58.8974078 166.107614,58.2885783 165.395323,58.2527648 L165.395323,58.2527648 C164.679053,58.2169513 164.070224,58.7660917 164.03441,59.4783825 C163.998597,60.1946526 164.547737,60.8034821 165.260028,60.8392956 L165.260028,60.8392956 Z M149.935827,61.2213064 L149.935827,61.2213064 C150.648118,61.1496793 151.165424,60.5129948 151.093797,59.800704 C151.02217,59.0884132 150.385486,58.571107 149.673195,58.642734 L149.673195,58.642734 C148.960904,58.714361 148.443598,59.3510456 148.515225,60.0633364 C148.586852,60.7756272 149.223536,61.2929334 149.935827,61.2213064 L149.935827,61.2213064 Z M134.854363,63.9311949 L134.854363,63.9311949 C135.546757,63.7521273 135.960602,63.0438158 135.781534,62.3514214 C135.602467,61.659027 134.894155,61.245182 134.201761,61.4242495 L134.201761,61.4242495 C133.509367,61.6033171 133.095522,62.3116286 133.274589,63.004023 C133.453657,63.6964174 134.161968,64.1102624 134.854363,63.9311949 L134.854363,63.9311949 Z M120.373769,68.9371269 L120.373769,68.9371269 C121.03035,68.6506189 121.328796,67.8865974 121.046267,67.2339958 C120.759759,66.5774149 119.995738,66.278969 119.343136,66.5614978 C118.686555,66.8480058 118.388109,67.6120272 118.670638,68.2646289 C118.957146,68.9212098 119.721167,69.2196557 120.373769,68.9371269 Z M106.848202,76.1197242 L106.848202,76.1197242 C107.453052,75.7377135 107.63212,74.9338993 107.24613,74.3330282 C106.864119,73.7281779 106.060305,73.5491104 105.459434,73.9351004 C104.854584,74.3171111 104.675516,75.1169461 105.061506,75.7217963 C105.443517,76.3266466 106.243352,76.5057142 106.848202,76.1197242 Z M94.5840666,85.3038984 L94.5840666,85.3038984 C95.1212691,84.8303643 95.176979,84.0146123 94.7034449,83.4774097 C94.2299108,82.9402071 93.4141588,82.8844972 92.8769562,83.3580313 C92.3397536,83.8315655 92.2840437,84.6473175 92.7575778,85.1845201 C93.231112,85.7217226 94.046864,85.7774325 94.5840666,85.3038984 Z M83.8678702,96.2588515 L83.8678702,96.2588515 C84.3254872,95.7097111 84.2538602,94.893959 83.7086991,94.4323627 C83.1595587,93.9707665 82.3438066,94.0463728 81.8822103,94.5915339 L81.8822103,94.5915339 C81.4206141,95.1406743 81.4962203,95.9564263 82.0413815,96.4180226 C82.5905219,96.8756396 83.4062739,96.8040126 83.8678702,96.2588515 L83.8678702,96.2588515 Z M74.9503076,108.72593 L74.9503076,108.72593 C75.3203805,108.113121 75.1253958,107.317266 74.512587,106.947193 C73.8997781,106.57712 73.1039225,106.772105 72.7338496,107.384913 L72.7338496,107.384913 C72.3637767,107.997722 72.5587614,108.793578 73.1715702,109.163651 C73.7843791,109.533724 74.5802347,109.338739 74.9503076,108.72593 L74.9503076,108.72593 Z M68.0542184,122.418627 L68.0542184,122.418627 C68.3248093,121.758067 68.0104463,120.998024 67.3459068,120.727434 C66.6853466,120.456843 65.9253045,120.771206 65.6547136,121.435745 L65.6547136,121.435745 C65.3841227,122.096305 65.6984856,122.852368 66.3630251,123.126938 C67.0235853,123.397529 67.7796482,123.083166 68.0542184,122.418627 L68.0542184,122.418627 Z M63.3546907,137.014619 L63.3546907,137.014619 C63.5218204,136.318246 63.0920584,135.621872 62.3956847,135.454742 C61.699311,135.287613 61.0029373,135.717375 60.8358076,136.413748 L60.8358076,136.413748 C60.6686779,137.110122 61.09844,137.806496 61.7948137,137.973626 C62.4911874,138.140755 63.1875611,137.710993 63.3546907,137.014619 L63.3546907,137.014619 Z M60.9750823,152.151794 L60.9750823,152.151794 C61.0307922,151.439503 60.4975689,150.814756 59.7852781,150.759047 C59.0729873,150.703337 58.4482406,151.23656 58.3925307,151.948851 L58.3925307,151.948851 C58.3368208,152.661142 58.8700441,153.285888 59.5823349,153.341598 C60.2946258,153.397308 60.9193724,152.864085 60.9750823,152.151794 L60.9750823,152.151794 Z M60.9432481,167.479974 L60.9432481,167.479974 C60.8915175,166.767683 60.2707501,166.23048 59.55448,166.282211 C58.8421892,166.333942 58.3049866,166.954709 58.3567172,167.670979 L58.3567172,167.670979 C58.4084479,168.38327 59.0292153,168.920473 59.7454854,168.868742 C60.4577762,168.817011 60.9949787,168.196244 60.9432481,167.479974 L60.9432481,167.479974 Z M63.2432709,182.633065 L63.2432709,182.633065 C63.0801205,181.936692 62.3837468,181.50295 61.6873731,181.662122 C60.9909995,181.825272 60.5572581,182.517666 60.7164293,183.218019 L60.7164293,183.218019 C60.8795797,183.914393 61.5719741,184.348134 62.2723271,184.188963 C62.9687007,184.025813 63.4024421,183.333418 63.2432709,182.633065 L63.2432709,182.633065 Z M67.8512752,197.248955 L67.8512752,197.248955 C67.5846635,196.584415 66.8286007,196.266073 66.1640612,196.532684 C65.4995217,196.799296 65.1811795,197.555359 65.4477911,198.219898 L65.4477911,198.219898 C65.7144028,198.884438 66.4704656,199.20278 67.1350051,198.936169 C67.7995446,198.669557 68.1178868,197.913494 67.8512752,197.248955 L67.8512752,197.248955 Z M74.6598203,210.965527 L74.6598203,210.965527 C74.2937267,210.352718 73.497871,210.149775 72.8850622,210.515868 C72.2722533,210.881962 72.0693101,211.677818 72.4354037,212.290626 L72.4354037,212.290626 C72.8014973,212.903435 73.597353,213.106378 74.2101618,212.740285 C74.8229707,212.374191 75.0259139,211.578336 74.6598203,210.965527 L74.6598203,210.965527 Z M83.5057559,223.476378 L83.5057559,223.476378 C83.0481389,222.927237 82.2323868,222.847652 81.6832464,223.305269 C81.134106,223.762886 81.0545205,224.578638 81.5121375,225.127778 L81.5121375,225.127778 C81.9697545,225.676918 82.7855065,225.752525 83.3346469,225.298887 C83.8837873,224.84127 83.9593936,224.025518 83.5057559,223.476378 L83.5057559,223.476378 Z M94.1662423,234.487041 L94.1662423,234.487041 C93.6290398,234.013506 92.8132877,234.061258 92.3357743,234.59846 C91.8622402,235.135663 91.9099916,235.951415 92.4471941,236.428928 C92.9843967,236.902462 93.8001487,236.854711 94.2776621,236.317509 C94.7511962,235.780306 94.7034449,234.964554 94.1662423,234.487041 Z M106.386606,243.738863 L106.386606,243.738863 C105.785735,243.352873 104.981921,243.527961 104.595931,244.128832 C104.209941,244.729703 104.385029,245.533517 104.9859,245.919507 L104.9859,245.919507 C105.586771,246.305497 106.390585,246.130409 106.776575,245.529538 C107.162565,244.928667 106.987477,244.124852 106.386606,243.738863 L106.386606,243.738863 Z M119.884318,251.009004 L119.884318,251.009004 C119.231716,250.718517 118.463715,251.012983 118.177207,251.669564 C117.88672,252.322166 118.181187,253.090166 118.837768,253.376674 L118.837768,253.376674 C119.490369,253.667162 120.25837,253.368716 120.544878,252.716114 C120.835365,252.063513 120.536919,251.295512 119.884318,251.009004 L119.884318,251.009004 Z M134.345015,256.106459 L134.345015,256.106459 C133.652621,255.923413 132.944309,256.333278 132.757283,257.021693 C132.574236,257.714088 132.984102,258.422399 133.672517,258.609425 L133.672517,258.609425 C134.364911,258.792472 135.073223,258.382607 135.260249,257.694191 C135.443296,257.001797 135.03343,256.293485 134.345015,256.106459 L134.345015,256.106459 Z M149.410562,258.903892 L149.410562,258.903892 C148.698272,258.828286 148.061587,259.341613 147.985981,260.053903 C147.910375,260.766194 148.423701,261.402879 149.135992,261.478485 C149.848283,261.554091 150.484968,261.036785 150.560574,260.328474 C150.63618,259.616183 150.118874,258.979498 149.410562,258.903892 Z" id="Shape" fill="#AAAAAA"></path>
                <path d="M288.844473,160.082496 L288.844473,160.082496 C288.844473,161.037522 289.616453,161.809502 290.57148,161.809502 C291.526506,161.809502 292.298486,161.037522 292.298486,160.082496 L292.298486,160.082496 C292.298486,159.127469 291.526506,158.355489 290.57148,158.355489 C289.616453,158.355489 288.844473,159.127469 288.844473,160.082496 L288.844473,160.082496 Z M287.785985,143.492884 L287.785985,143.492884 C287.909342,144.439953 288.772846,145.108471 289.719914,144.985114 C290.666982,144.861756 291.335501,143.998253 291.212143,143.051185 L291.212143,143.051185 C291.088786,142.104116 290.225282,141.435598 289.278214,141.558955 C288.331146,141.682313 287.662627,142.545816 287.785985,143.492884 L287.785985,143.492884 Z M284.542873,126.955004 L284.542873,126.955004 C284.785609,127.878197 285.732677,128.427337 286.65587,128.180622 C287.579062,127.937886 288.128203,126.990818 287.881488,126.067625 C287.638752,125.144432 286.691683,124.595292 285.768491,124.842007 C284.845298,125.084743 284.296158,126.031811 284.542873,126.955004 Z M279.15493,110.98616 L279.15493,110.98616 C279.517045,111.86956 280.527781,112.287384 281.411181,111.92527 C282.294581,111.563156 282.712405,110.552419 282.350291,109.669019 L282.350291,109.669019 C281.988176,108.785619 280.97744,108.367795 280.09404,108.72991 C279.21064,109.092024 278.792816,110.102761 279.15493,110.98616 L279.15493,110.98616 Z M271.721639,95.8728615 L271.721639,95.8728615 C272.199152,96.7005514 273.253661,96.9830801 274.081351,96.5055667 C274.90904,96.0280533 275.191569,94.9735446 274.714056,94.1458547 C274.236542,93.3181648 273.182034,93.0356361 272.354344,93.5131495 C271.526654,93.9906629 271.244125,95.0451716 271.721639,95.8728615 Z M262.374314,81.8538642 L262.374314,81.8538642 C262.955288,82.609927 264.037652,82.753181 264.793715,82.1761857 C265.549778,81.5952111 265.693032,80.5128474 265.116037,79.7567845 L265.116037,79.7567845 C264.535062,79.0007216 263.452698,78.8534883 262.696635,79.434463 C261.940573,80.0154376 261.793339,81.0978013 262.374314,81.8538642 L262.374314,81.8538642 Z M251.276107,69.1639458 L251.276107,69.1639458 C251.948605,69.8404231 253.042906,69.8404231 253.719384,69.167925 C254.395861,68.495427 254.395861,67.4011255 253.723363,66.7246482 L253.723363,66.7246482 C253.050865,66.0481709 251.956563,66.0481709 251.280086,66.7206689 C250.603609,67.3931669 250.603609,68.4874685 251.276107,69.1639458 L251.276107,69.1639458 Z M238.622002,58.0219666 L238.622002,58.0219666 C239.378065,58.6029413 240.460428,58.4636665 241.045382,57.7076036 C241.626357,56.9515408 241.487082,55.8691771 240.731019,55.2842232 L240.731019,55.2842232 C239.974957,54.7032486 238.892593,54.8425233 238.307639,55.5985862 C237.726664,56.354649 237.865939,57.4370127 238.622002,58.0219666 L238.622002,58.0219666 Z M224.62688,48.6189321 L224.62688,48.6189321 C225.450591,49.0964455 226.509079,48.817896 226.986592,47.9941854 C227.464106,47.1704748 227.185556,46.1119868 226.361846,45.6344734 C225.538135,45.15696 224.479647,45.4355095 224.002134,46.2592201 C223.52462,47.0829307 223.80317,48.1414187 224.62688,48.6189321 Z M209.52154,41.1259511 L209.52154,41.1259511 C210.40096,41.4920447 211.411697,41.0781998 211.78177,40.1948 C212.147864,39.3153795 211.734019,38.3046428 210.850619,37.9345699 L210.850619,37.9345699 C209.971198,37.5684763 208.960462,37.9823213 208.590389,38.8657211 C208.224295,39.7451416 208.63814,40.7558782 209.52154,41.1259511 L209.52154,41.1259511 L209.52154,41.1259511 Z M193.556676,35.6822985 L193.556676,35.6822985 C194.475889,35.9290137 195.426936,35.3838526 195.673652,34.4646393 C195.920367,33.5414467 195.375206,32.5943785 194.455992,32.3476633 L194.455992,32.3476633 C193.5328,32.100948 192.585732,32.6461091 192.339016,33.5653224 C192.092301,34.4845357 192.637462,35.4355832 193.556676,35.6822985 L193.556676,35.6822985 Z M177.026754,32.387456 L177.026754,32.387456 C177.973822,32.5108137 178.841305,31.8462742 178.964662,30.899206 C179.08802,29.9521378 178.42348,29.0846551 177.476412,28.9612975 C176.529344,28.8379398 175.661861,29.5024793 175.538504,30.4495475 C175.415146,31.3966158 176.079685,32.2640984 177.026754,32.387456 Z M160.206344,31.2772374 L160.206344,31.2772374 C161.161371,31.2772374 161.933351,30.5052574 161.93733,29.5542099 C161.93733,28.5991831 161.16535,27.8272032 160.214303,27.8232239 L160.214303,27.8232239 C159.259276,27.8232239 158.487296,28.5952039 158.483317,29.5462514 C158.483317,30.5012782 159.255297,31.2732581 160.206344,31.2772374 L160.206344,31.2772374 Z M143.381956,32.343684 L143.381956,32.343684 C144.329024,32.2203264 144.997543,31.356823 144.874185,30.4097548 C144.750828,29.4626865 143.887324,28.7941678 142.940256,28.9175254 L142.940256,28.9175254 C141.993188,29.040883 141.324669,29.9043864 141.448027,30.8514546 C141.571384,31.7985229 142.434888,32.4670416 143.381956,32.343684 L143.381956,32.343684 Z M126.844075,35.5947543 L126.844075,35.5947543 C127.767268,35.3480391 128.316408,34.4049501 128.069693,33.4817576 C127.822978,32.558565 126.879889,32.0094246 125.956696,32.2561399 L125.956696,32.2561399 C125.033504,32.5028551 124.484363,33.4459441 124.731079,34.3691366 C124.977794,35.2923292 125.920883,35.8414696 126.844075,35.5947543 L126.844075,35.5947543 Z M110.875232,40.9906557 L110.875232,40.9906557 C111.758632,40.6245621 112.176456,39.6178047 111.810362,38.7344049 C111.444269,37.8510051 110.437511,37.4331809 109.554111,37.7992745 C108.670712,38.1653681 108.252887,39.1721255 108.618981,40.0555253 C108.985075,40.938925 109.991832,41.3567493 110.875232,40.9906557 Z M95.7659122,48.431906 L95.7659122,48.431906 C96.5936021,47.9543926 96.8761308,46.8998839 96.3986174,46.072194 C95.9211041,45.2445041 94.8665953,44.9619754 94.0389054,45.4394888 L94.0389054,45.4394888 C93.2112156,45.9170021 92.9286868,46.9715109 93.4062002,47.7992008 C93.8837136,48.6268906 94.9382223,48.9094194 95.7659122,48.431906 L95.7659122,48.431906 L95.7659122,48.431906 Z M81.7508942,57.7871892 L81.7508942,57.7871892 C82.506957,57.2062146 82.650211,56.1238509 82.0732157,55.3638087 C81.4922411,54.6077459 80.4098774,54.4644919 79.6498352,55.0414872 L79.6498352,55.0414872 C78.8937724,55.6224618 78.7505183,56.7048255 79.331493,57.4648677 C79.9124676,58.2209305 80.9948313,58.3641846 81.7548734,57.7832099 L81.7548734,57.7832099 L81.7508942,57.7871892 Z M69.0689343,68.8893756 L69.0689343,68.8893756 C69.7454116,68.2168775 69.7454116,67.122576 69.0689343,66.4460987 C68.3964363,65.7696214 67.3021348,65.7696214 66.6256575,66.4460987 L66.6256575,66.4460987 C65.9491802,67.1185967 65.9491802,68.2128983 66.6256575,68.8893756 C67.2981555,69.5658529 68.392457,69.5658529 69.0689343,68.8893756 L69.0689343,68.8893756 Z M57.9309345,81.5474597 L57.9309345,81.5474597 C58.5119091,80.7913969 58.3726344,79.7090332 57.6165715,79.1240793 C56.8605086,78.5431046 55.7781449,78.6823794 55.193191,79.4384422 L55.193191,79.4384422 C54.6122164,80.1945051 54.7514911,81.2768688 55.507554,81.8618227 C56.2636169,82.4427973 57.3459806,82.3035226 57.9309345,81.5474597 L57.9309345,81.5474597 Z M48.5358585,95.5465607 L48.5358585,95.5465607 C49.0133719,94.7228501 48.7348224,93.664362 47.9071325,93.1868487 C47.0834219,92.7093353 46.0249339,92.9878847 45.5474205,93.8155746 L45.5474205,93.8155746 C45.0699071,94.6392852 45.3484566,95.6977732 46.1761465,96.1752866 C46.9998571,96.6528 48.0583451,96.3742505 48.5358585,95.5465607 L48.5358585,95.5465607 L48.5358585,95.5465607 Z M41.0508361,110.65588 L41.0508361,110.65588 C41.4169297,109.77646 40.9991055,108.765723 40.119685,108.399629 C39.2402645,108.033536 38.2295278,108.45136 37.8634342,109.330781 L37.8634342,109.330781 C37.4973406,110.210201 37.9151648,111.220938 38.7945853,111.587031 C39.6740058,111.953125 40.6847425,111.535301 41.0508361,110.65588 L41.0508361,110.65588 Z M35.615142,126.620745 L35.615142,126.620745 C35.8618572,125.697552 35.3166961,124.750484 34.3935035,124.503769 C33.470311,124.257053 32.5232427,124.802214 32.2765275,125.725407 C32.0298122,126.6486 32.5749734,127.595668 33.4981659,127.842383 C34.4213585,128.089098 35.3684267,127.543937 35.615142,126.620745 L35.615142,126.620745 Z M32.3282581,143.150667 L32.3282581,143.150667 C32.4516157,142.203598 31.7870763,141.336116 30.840008,141.212758 C29.8929398,141.0894 29.0254572,141.75394 28.9020995,142.701008 L28.9020995,142.701008 C28.7787419,143.648076 29.4432814,144.515559 30.3903496,144.638917 C31.3374178,144.762274 32.2049005,144.097735 32.3282581,143.150667 L32.3282581,143.150667 Z M31.225998,159.971076 L31.225998,159.971076 C31.225998,159.016049 30.4540181,158.244069 29.4989913,158.244069 C28.5439645,158.244069 27.7719845,159.016049 27.7719845,159.971076 L27.7719845,159.971076 C27.7719845,160.926103 28.5439645,161.698083 29.4989913,161.698083 C30.4540181,161.698083 31.225998,160.926103 31.225998,159.971076 L31.225998,159.971076 Z M32.3004032,176.795464 L32.3004032,176.795464 C32.1770455,175.848396 31.3135422,175.183857 30.3664739,175.303235 C29.4194057,175.426593 28.7548662,176.290096 28.8742446,177.237164 C28.9976022,178.184232 29.8611056,178.848772 30.8081738,178.729394 C31.755242,178.606036 32.4197815,177.742532 32.3004032,176.795464 Z M35.5554528,193.333345 L35.5554528,193.333345 C35.3087375,192.410152 34.3616693,191.864991 33.442456,192.107727 C32.5192635,192.354442 31.9741023,193.297531 32.2168383,194.220724 L32.2168383,194.220724 C32.4635536,195.143916 33.4066425,195.689077 34.3298351,195.446341 C35.2530276,195.199626 35.7981888,194.252558 35.5554528,193.333345 L35.5554528,193.333345 Z M40.9593127,209.298209 L40.9593127,209.298209 C40.5932191,208.414809 39.5824824,207.996985 38.7030619,208.363079 C37.8196621,208.729172 37.4018379,209.739909 37.7679315,210.61933 L37.7679315,210.61933 C38.1340251,211.49875 39.1407825,211.920554 40.0241823,211.55446 C40.9036028,211.188366 41.3254063,210.17763 40.9593127,209.298209 L40.9593127,209.298209 Z M48.4085216,224.407529 L48.4085216,224.407529 C47.9310082,223.579839 46.8764994,223.29731 46.0488096,223.774823 C45.2211197,224.252337 44.9385909,225.306846 45.4161043,226.134535 C45.8936177,226.962225 46.9481265,227.244754 47.7758163,226.767241 C48.6035062,226.289727 48.886035,225.235219 48.4085216,224.407529 L48.4085216,224.407529 Z M57.7717633,238.418567 L57.7717633,238.418567 C57.1907887,237.662505 56.108425,237.519251 55.3483829,238.100225 C54.59232,238.6812 54.449066,239.763564 55.0300406,240.523606 L55.0300406,240.523606 C55.6110152,241.279669 56.6933789,241.422923 57.4534211,240.841948 C58.2094839,240.260973 58.352738,239.17861 57.7717633,238.418567 L57.7717633,238.418567 Z M68.877929,251.096548 L68.877929,251.096548 C68.2054309,250.420071 67.1111294,250.420071 66.4346521,251.096548 C65.7581748,251.769046 65.7581748,252.863348 66.4346521,253.539825 L66.4346521,253.539825 C67.1071501,254.216302 68.2014517,254.216302 68.877929,253.539825 C69.5544063,252.867327 69.5544063,251.773025 68.877929,251.096548 L68.877929,251.096548 Z M81.5399924,262.226589 L81.5399924,262.226589 C80.7839295,261.645615 79.6975866,261.784889 79.1166119,262.540952 C78.5356373,263.297015 78.6749121,264.379379 79.4309749,264.964333 L79.4309749,264.964333 C80.1870378,265.545307 81.2694015,265.406033 81.8543554,264.64997 C82.43533,263.893907 82.2960553,262.811543 81.5399924,262.226589 L81.5399924,262.226589 Z M95.5430726,271.617686 L95.5430726,271.617686 C94.719362,271.140173 93.660874,271.418722 93.1833606,272.246412 C92.7058472,273.070123 92.9843967,274.128611 93.8120866,274.606124 L93.8120866,274.606124 C94.6357972,275.083637 95.6942852,274.801109 96.1717986,273.977398 C96.649312,273.153687 96.3667832,272.095199 95.5430726,271.617686 L95.5430726,271.617686 Z M110.656371,279.098729 L110.656371,279.098729 C109.776951,278.732636 108.766214,279.15046 108.400121,280.02988 C108.034027,280.909301 108.451851,281.920037 109.331272,282.286131 L109.331272,282.286131 C110.210692,282.652225 111.221429,282.2344 111.587523,281.35498 C111.953616,280.475559 111.535792,279.464823 110.656371,279.098729 L110.656371,279.098729 Z M126.625215,284.526465 L126.625215,284.526465 C125.702023,284.279749 124.754954,284.824911 124.508239,285.748103 C124.261524,286.671296 124.806685,287.618364 125.729878,287.865079 L125.729878,287.865079 C126.65307,288.111794 127.600138,287.566633 127.846854,286.643441 C128.093569,285.720248 127.548408,284.77318 126.625215,284.526465 L126.625215,284.526465 Z M143.159116,287.80539 L143.159116,287.80539 C142.212048,287.682032 141.344565,288.346572 141.221208,289.29364 C141.09785,290.240708 141.76239,291.108191 142.709458,291.231549 C143.656526,291.354906 144.524009,290.690367 144.647366,289.743299 C144.770724,288.79623 144.106185,287.928748 143.159116,287.80539 Z M159.979526,288.899692 L159.979526,288.899692 C159.024499,288.899692 158.252519,289.671672 158.252519,290.626698 C158.252519,291.581725 159.024499,292.353705 159.979526,292.353705 L159.979526,292.353705 C160.934552,292.353705 161.706532,291.581725 161.706532,290.626698 C161.706532,289.671672 160.934552,288.899692 159.979526,288.899692 L159.979526,288.899692 Z M176.803914,287.817328 L176.803914,287.817328 C175.856846,287.940685 175.192306,288.808168 175.315664,289.751257 C175.439022,290.698325 176.306504,291.362865 177.249593,291.239507 L177.249593,291.239507 C178.196661,291.11615 178.861201,290.248667 178.741823,289.305578 C178.618465,288.35851 177.750982,287.69397 176.807893,287.813349 L176.807893,287.813349 L176.803914,287.817328 Z M193.337815,284.55432 L193.337815,284.55432 C192.414623,284.801035 191.869462,285.748103 192.116177,286.667316 C192.362892,287.590509 193.30996,288.13567 194.229174,287.888955 L194.229174,287.888955 C195.152366,287.64224 195.697527,286.695171 195.450812,285.775958 C195.204097,284.852766 194.257029,284.307604 193.337815,284.55432 L193.337815,284.55432 Z M209.2987,279.142501 L209.2987,279.142501 C208.41928,279.508595 207.997476,280.519332 208.36357,281.398752 C208.729664,282.278172 209.7404,282.699976 210.619821,282.333882 L210.619821,282.333882 C211.499241,281.967789 211.921045,280.957052 211.554951,280.077632 C211.188858,279.198211 210.178121,278.776408 209.2987,279.142501 L209.2987,279.142501 Z M224.404041,271.689313 L224.404041,271.689313 C223.576351,272.166826 223.293822,273.221335 223.771335,274.049025 C224.248849,274.876715 225.303358,275.159244 226.131047,274.68173 L226.131047,274.68173 C226.958737,274.204217 227.241266,273.149708 226.763753,272.322018 C226.286239,271.494328 225.231731,271.2118 224.404041,271.689313 L224.404041,271.689313 Z M238.4111,262.322092 L238.4111,262.322092 C237.655037,262.903067 237.511783,263.98543 238.092758,264.745472 C238.673733,265.501535 239.756096,265.644789 240.516138,265.063815 L240.516138,265.063815 C241.272201,264.48284 241.415455,263.400476 240.834481,262.640434 C240.253506,261.884371 239.171142,261.741117 238.4111,262.322092 L238.4111,262.322092 Z M251.085101,251.207968 L251.085101,251.207968 C250.408624,251.880466 250.408624,252.974767 251.085101,253.651245 C251.757599,254.327722 252.851901,254.327722 253.528378,253.651245 L253.528378,253.651245 C254.204856,252.978747 254.204856,251.884445 253.528378,251.207968 C252.85588,250.531491 251.761579,250.531491 251.085101,251.207968 L251.085101,251.207968 Z M262.211163,238.541925 L262.211163,238.541925 C261.630189,239.297988 261.769464,240.380352 262.525526,240.965306 C263.281589,241.54628 264.363953,241.407005 264.948907,240.650943 L264.948907,240.650943 C265.529882,239.89488 265.390607,238.808537 264.634544,238.227562 C263.878481,237.646587 262.792138,237.785862 262.211163,238.541925 L262.211163,238.541925 Z M271.594302,224.534866 L271.594302,224.534866 C271.116788,225.358576 271.399317,226.417064 272.223028,226.894578 C273.046738,227.372091 274.105226,227.089562 274.58274,226.265852 L274.58274,226.265852 C275.060253,225.442141 274.777724,224.383653 273.954014,223.90614 C273.130303,223.428626 272.071815,223.711155 271.594302,224.534866 L271.594302,224.534866 Z M279.067386,209.417587 L279.067386,209.417587 C278.701293,210.297008 279.119117,211.307745 280.002517,211.673838 C280.881937,212.039932 281.892674,211.622108 282.258767,210.738708 C282.624861,209.859287 282.207037,208.848551 281.323637,208.482457 C280.444216,208.116363 279.43348,208.534188 279.067386,209.417587 Z M284.487163,193.448744 L284.487163,193.448744 C284.240448,194.371936 284.789588,195.315025 285.708802,195.561741 C286.631994,195.808456 287.575083,195.259315 287.821798,194.340102 L287.821798,194.340102 C288.068514,193.41691 287.519373,192.469841 286.60016,192.227105 C285.676967,191.98039 284.729899,192.529531 284.487163,193.448744 L284.487163,193.448744 Z M287.75813,176.914843 L287.75813,176.914843 C287.634772,177.861911 288.303291,178.729394 289.24638,178.852751 C290.193448,178.976109 291.060931,178.30759 291.184288,177.364501 C291.307646,176.417433 290.639127,175.54995 289.696038,175.426593 C288.74897,175.303235 287.881488,175.971754 287.75813,176.914843 Z" id="Shape" fill="#6C6C6C"></path>
                <path d="M315.684705,154.10562 L315.684705,154.10562 C315.728477,155.295424 316.735234,156.226575 317.925038,156.178824 C319.114843,156.135052 320.045994,155.128294 319.998242,153.93849 L319.998242,153.93849 C319.95447,152.748686 318.947713,151.817535 317.757909,151.865286 C316.568105,151.909058 315.636953,152.915815 315.684705,154.10562 L315.684705,154.10562 Z M315.672767,153.791257 L315.672767,153.791257 C315.720518,154.981061 316.727276,155.908233 317.91708,155.860481 C319.106884,155.81273 320.034056,154.805973 319.986305,153.616168 C319.938553,152.426364 318.931796,151.499192 317.741992,151.546944 C316.552187,151.594695 315.625016,152.601452 315.672767,153.791257 Z M313.607522,133.942617 L313.607522,133.942617 C313.806485,135.116504 314.920683,135.912359 316.09457,135.713395 C317.268458,135.514432 318.064313,134.400234 317.865349,133.226347 L317.865349,133.226347 C317.666385,132.04848 316.552187,131.256604 315.3783,131.455568 C314.204413,131.654532 313.408558,132.76873 313.607522,133.942617 L313.607522,133.942617 Z M309.027372,114.523739 L309.027372,114.523739 C309.373569,115.665792 310.58327,116.306455 311.721344,115.960258 C312.863396,115.614061 313.50406,114.40436 313.157863,113.266287 C312.811666,112.124234 311.601965,111.48357 310.463892,111.829767 C309.321839,112.175965 308.681175,113.385665 309.027372,114.523739 Z M301.98405,95.8529651 L301.98405,95.8529651 C302.47748,96.9393081 303.754829,97.4208007 304.841171,96.9273702 C305.927514,96.4339397 306.409007,95.1565914 305.915577,94.0702484 L305.915577,94.0702484 C305.422146,92.9839055 304.144798,92.5024128 303.058455,92.9958433 C301.972112,93.4892738 301.490619,94.7666221 301.98405,95.8529651 L301.98405,95.8529651 Z M292.604891,78.2565966 L292.604891,78.2565966 C293.233617,79.2713126 294.562696,79.5856755 295.577412,78.9569496 C296.592128,78.3282236 296.906491,76.9991447 296.277765,75.9844287 C295.649039,74.9697128 294.31996,74.6553498 293.305244,75.2840757 C292.290528,75.9128017 291.976165,77.2418806 292.604891,78.2565966 Z M281.049067,61.9972656 L281.049067,61.9972656 C281.80115,62.9244374 283.162064,63.0637122 284.085256,62.3116286 C285.012428,61.559545 285.151703,60.1986318 284.399619,59.2754393 L284.399619,59.2754393 C283.647535,58.3482674 282.286622,58.2089927 281.36343,58.9610763 C280.436258,59.7131599 280.296983,61.0740731 281.049067,61.9972656 L281.049067,61.9972656 Z M267.511562,47.3376045 L267.511562,47.3376045 C268.375065,48.1613151 269.739958,48.1255016 270.563669,47.2659775 C271.387379,46.4024741 271.351566,45.0375817 270.492042,44.2138711 L270.492042,44.2138711 C269.628538,43.3901604 268.263646,43.4219947 267.439935,44.2854981 C266.616224,45.1490014 266.648059,46.5138939 267.511562,47.3376045 L267.511562,47.3376045 Z M252.215216,34.5163699 L252.215216,34.5163699 C253.174223,35.2207022 254.527177,35.017759 255.235489,34.0547736 C255.939821,33.0957676 255.736878,31.742813 254.773892,31.0345014 L254.773892,31.0345014 C253.814886,30.3301692 252.461932,30.5331124 251.757599,31.4960977 C251.053267,32.4551038 251.25621,33.8080584 252.219196,34.5123906 L252.219196,34.5123906 L252.215216,34.5163699 Z M235.410724,23.7444637 L235.410724,23.7444637 C236.453295,24.321459 237.766457,23.9474068 238.347432,22.9008567 C238.924427,21.8582858 238.550375,20.5451239 237.503825,19.9641493 L237.503825,19.9641493 C236.461254,19.387154 235.148092,19.7612061 234.567117,20.8077563 C233.990122,21.8503272 234.364174,23.163489 235.410724,23.7444637 L235.410724,23.7444637 Z M217.364697,15.2089118 L217.364697,15.2089118 C218.474916,15.6466324 219.728389,15.1054505 220.166109,13.9992112 C220.60383,12.8889926 220.062648,11.6355199 218.956409,11.1977993 L218.956409,11.1977993 C217.84619,10.7600787 216.592717,11.3012605 216.154997,12.4074999 C215.717276,13.5177185 216.258458,14.7711912 217.364697,15.2089118 L217.364697,15.2089118 Z M198.367623,9.06490614 L198.367623,9.06490614 C199.521614,9.35937273 200.69948,8.65901976 200.989967,7.50104978 C201.284434,6.34705909 200.584081,5.16919272 199.426111,4.87870541 L199.426111,4.87870541 C198.27212,4.58423881 197.094254,5.28459179 196.803767,6.44256176 C196.5093,7.59655246 197.209653,8.77441883 198.367623,9.06490614 L198.367623,9.06490614 Z M178.749781,5.41988725 L178.749781,5.41988725 C179.935606,5.56314127 181.010011,4.715555 181.149286,3.53370935 C181.29254,2.34788443 180.444954,1.2734793 179.263108,1.13420456 L179.263108,1.13420456 C178.077283,0.990950542 177.002878,1.83853681 176.863603,3.02038246 C176.720349,4.20620738 177.567935,5.28061251 178.749781,5.41988725 L178.749781,5.41988725 Z M158.825535,4.31762717 L158.825535,4.31762717 C160.019318,4.30568934 160.978324,3.33474544 160.966387,2.14096196 C160.954449,0.947178481 159.983505,-0.0118275807 158.789721,0.000110254127 L158.789721,0.000110254127 C157.595938,0.00806881066 156.636932,0.982991985 156.64887,2.17677546 C156.656828,3.37055894 157.631751,4.32558573 158.825535,4.31762717 L158.825535,4.31762717 Z M138.917206,5.74220879 L138.917206,5.74220879 C140.099051,5.58303766 140.926741,4.49271541 140.76757,3.31086977 C140.608399,2.12902413 139.518077,1.30133425 138.336231,1.46050538 L138.336231,1.46050538 C137.154385,1.61967651 136.326696,2.70999875 136.485867,3.8918444 C136.645038,5.07369004 137.73536,5.90137992 138.917206,5.74220879 L138.917206,5.74220879 Z M119.359053,9.68567355 L119.359053,9.68567355 C120.509064,9.37528985 121.1935,8.18946492 120.883117,7.0394535 C120.572733,5.88944209 119.386908,5.20500622 118.236897,5.51538993 L118.236897,5.51538993 C117.086885,5.82577363 116.402449,7.01159856 116.712833,8.16160997 C117.023217,9.31162139 118.209042,9.99605725 119.359053,9.68567355 L119.359053,9.68567355 Z M100.469419,16.1082287 L100.469419,16.1082287 C101.571679,15.6506117 102.092965,14.3891805 101.639327,13.2869204 C101.18171,12.1846603 99.9202787,11.6633748 98.8180186,12.1170126 L98.8180186,12.1170126 C97.7157586,12.5746296 97.1944731,13.8360608 97.6481108,14.9383209 C98.1057278,16.0405809 99.367159,16.5618664 100.469419,16.1082287 L100.469419,16.1082287 L100.469419,16.1082287 Z M82.5746048,24.9024336 L82.5746048,24.9024336 C83.6092171,24.3095212 83.9673522,22.9884008 83.3704604,21.9537884 C82.7775479,20.9191761 81.4564276,20.561041 80.4218152,21.1579328 L80.4218152,21.1579328 C79.3872029,21.7508452 79.0290678,23.0719656 79.6259596,24.106578 C80.218872,25.1411903 81.5399924,25.4993254 82.5746048,24.9024336 L82.5746048,24.9024336 L82.5746048,24.9024336 Z M65.9491802,35.9210551 L65.9491802,35.9210551 C66.9002277,35.2008058 67.0832745,33.8438719 66.3630251,32.8968037 C65.6427757,31.9457562 64.2858419,31.7627094 63.3387736,32.4829587 C62.3877261,33.2032081 62.2046793,34.560142 62.9249287,35.5072102 C63.6451781,36.4582577 65.0021119,36.6413045 65.9491802,35.9210551 Z M50.859757,48.9770671 L50.859757,48.9770671 C51.7113225,48.1414187 51.7232604,46.772547 50.8836327,45.9249607 C50.0479842,45.0733952 48.6791125,45.0614573 47.8315262,45.901085 C46.9799607,46.7367335 46.9680228,48.1056052 47.8076506,48.9531915 C48.643299,49.804757 50.0121707,49.8166948 50.859757,48.9770671 Z M37.5490712,63.84763 L37.5490712,63.84763 C38.2852377,62.9085203 38.1220873,61.5515864 37.1869569,60.81542 C36.2478472,60.0792535 34.8909133,60.2424039 34.1547468,61.1775343 L34.1547468,61.1775343 C33.4185804,62.116644 33.5817308,63.4735779 34.5168612,64.2097443 C35.4559708,64.9459108 36.8129047,64.7827604 37.5490712,63.84763 L37.5490712,63.84763 Z M26.2359831,80.2939871 L26.2359831,80.2939871 C26.8487919,79.2713126 26.5145326,77.9462129 25.4918581,77.333404 C24.4691835,76.7205952 23.1440839,77.0548546 22.531275,78.0775291 L22.531275,78.0775291 C21.9184662,79.1002036 22.2527255,80.4253033 23.2754001,81.0381121 C24.2980746,81.650921 25.6231742,81.3166616 26.2359831,80.2939871 L26.2359831,80.2939871 Z M17.1154773,98.0495267 L17.1154773,98.0495267 C17.5890114,96.9552252 17.0916016,95.6858354 15.9973001,95.208322 C14.9029986,94.7308086 13.6336088,95.2321977 13.1560954,96.3264992 C12.678582,97.4208007 13.1799711,98.6901905 14.2742726,99.1677039 C15.3685742,99.641238 16.6379639,99.1438282 17.1154773,98.0495267 Z M10.3507043,116.83172 L10.3507043,116.83172 C10.6809844,115.685688 10.0204242,114.487925 8.87439202,114.157645 C7.72835988,113.827365 6.53059712,114.487925 6.20031703,115.633957 L6.20031703,115.633957 C5.87003693,116.779989 6.53059712,117.977752 7.67662926,118.308032 C8.82266141,118.638312 10.0204242,117.977752 10.3507043,116.83172 L10.3507043,116.83172 Z M6.06104229,136.334163 L6.06104229,136.334163 C6.24010981,135.156297 5.43231632,134.054036 4.25444996,133.874969 C3.07658359,133.695901 1.97432351,134.503695 1.79525599,135.681561 L1.79525599,135.681561 C1.61618847,136.859428 2.42398196,137.961688 3.60184832,138.140755 C4.77971469,138.319823 5.88197477,137.512029 6.06104229,136.334163 L6.06104229,136.334163 L6.06104229,136.334163 Z M4.31413913,156.210658 L4.31413913,156.210658 C4.34199408,155.016874 3.39890513,154.030013 2.20910093,154.002158 C1.01531745,153.974303 0.0284564407,154.917392 0.000601492877,156.107197 C-0.027253455,157.30098 0.915835494,158.287841 2.10563969,158.315696 C3.29942317,158.343551 4.28628418,157.400462 4.31413913,156.210658 Z M5.09805695,176.15878 L5.09805695,176.15878 C4.97469932,174.972955 3.91621131,174.109451 2.73038638,174.232809 C1.54456146,174.356167 0.681058076,175.414655 0.804415702,176.60048 L0.804415702,176.60048 C0.927773328,177.786305 1.98626135,178.649808 3.17208627,178.52645 C4.35791119,178.403093 5.22141458,177.344605 5.09805695,176.15878 L5.09805695,176.15878 Z M8.40085791,195.836311 L8.40085791,195.836311 C8.13026699,194.674362 6.96831773,193.954112 5.80636848,194.228682 C4.64441923,194.499273 3.92416986,195.661223 4.19874006,196.823172 L4.19874006,196.823172 C4.46933098,197.985121 5.63128024,198.70537 6.79322949,198.4308 C7.95517874,198.160209 8.67542811,196.99826 8.40085791,195.836311 L8.40085791,195.836311 Z M14.2026456,214.924909 L14.2026456,214.924909 C13.7848214,213.810711 12.5393073,213.245653 11.4211301,213.663477 C10.3069322,214.081302 9.74187468,215.326816 10.1596989,216.444993 L10.1596989,216.444993 C10.5775231,217.559191 11.8230372,218.124248 12.9412144,217.706424 C14.0554123,217.2886 14.6204698,216.043086 14.2026456,214.924909 L14.2026456,214.924909 Z M22.415876,233.11021 L22.415876,233.11021 C21.8547977,232.055702 20.5495945,231.657774 19.4950857,232.218852 C18.440577,232.77993 18.0426491,234.085133 18.6037274,235.139642 L18.6037274,235.139642 C19.1648056,236.194151 20.4700089,236.592079 21.5245176,236.031001 C22.5790264,235.469922 22.9769542,234.164719 22.415876,233.11021 L22.415876,233.11021 Z M32.8893363,250.081832 L32.8893363,250.081832 C32.2009212,249.110888 30.8519459,248.88009 29.881002,249.568505 C28.9100581,250.25692 28.6792599,251.605896 29.3676751,252.57684 L29.3676751,252.57684 C30.0560902,253.547783 31.4050656,253.778582 32.3760095,253.090166 C33.3469533,252.401751 33.5777515,251.052776 32.8893363,250.081832 L32.8893363,250.081832 Z M45.4479386,265.5851 L45.4479386,265.5851 C44.6401451,264.709659 43.2752526,264.653949 42.3958321,265.461743 C41.5203909,266.269536 41.464681,267.634428 42.2724745,268.513849 L42.2724745,268.513849 C43.080268,269.38929 44.4451604,269.445 45.3245809,268.637207 C46.2000221,267.829413 46.255732,266.464521 45.4479386,265.5851 L45.4479386,265.5851 Z M59.8807808,279.36932 L59.8807808,279.36932 C58.9695261,278.601319 57.6046336,278.720698 56.8406122,279.631952 C56.0726115,280.543207 56.1919899,281.9081 57.1032446,282.672121 C58.0144993,283.440122 59.3793918,283.320743 60.1434132,282.409489 C60.9114139,281.498234 60.7920355,280.133342 59.8807808,279.36932 Z M75.9530857,291.207673 L75.9530857,291.207673 C74.9503076,290.56303 73.6132701,290.853517 72.968627,291.856295 C72.3239839,292.859073 72.6144713,294.196111 73.6172494,294.840754 C74.6200275,295.485397 75.957065,295.19491 76.6017081,294.192132 C77.2463512,293.189353 76.9558638,291.852316 75.9530857,291.207673 Z M93.4062002,300.901195 L93.4062002,300.901195 C92.3278158,300.391847 91.0425089,300.849464 90.529182,301.927849 C90.0198344,303.006233 90.4774514,304.29154 91.5558358,304.804867 L91.5558358,304.804867 C92.6342202,305.314214 93.9195271,304.856597 94.432854,303.778213 C94.9422016,302.699829 94.4845846,301.414522 93.4062002,300.901195 L93.4062002,300.901195 Z M111.957595,308.274797 L111.957595,308.274797 C110.823501,307.904725 109.605842,308.529471 109.235769,309.663566 C108.865696,310.79766 109.490443,312.015319 110.624537,312.385392 L110.624537,312.385392 C111.758632,312.751485 112.976291,312.130718 113.346364,310.996624 C113.712457,309.862529 113.09169,308.64487 111.957595,308.274797 L111.957595,308.274797 Z M131.308826,313.197165 L131.308826,313.197165 C130.134939,312.978304 129.008803,313.750284 128.789943,314.924171 C128.571082,316.098058 129.343062,317.224194 130.516949,317.443055 C131.690836,317.661915 132.816972,316.889935 133.035832,315.716048 C133.254693,314.542161 132.482713,313.416025 131.308826,313.197165 Z M151.117673,315.588711 L151.117673,315.588711 C149.927869,315.521063 148.909173,316.432318 148.841526,317.622122 C148.773878,318.811926 149.685133,319.830621 150.874937,319.898269 C152.064741,319.965917 153.083436,319.054662 153.151084,317.864858 C153.218732,316.675054 152.307477,315.656359 151.117673,315.588711 Z M171.077733,315.441478 L171.077733,315.441478 C169.887928,315.525042 168.992591,316.555675 169.076156,317.74548 C169.159721,318.935284 170.190354,319.830621 171.380158,319.747057 L171.380158,319.747057 C172.569962,319.663492 173.4653,318.632859 173.381735,317.443055 C173.29817,316.25325 172.267537,315.357913 171.077733,315.441478 L171.077733,315.441478 Z M190.854746,312.775361 L190.854746,312.775361 C189.684838,313.010139 188.928775,314.148212 189.163552,315.31812 C189.39833,316.488028 190.536403,317.244091 191.706311,317.009313 L191.706311,317.009313 C192.876219,316.774536 193.632282,315.636462 193.397504,314.466554 C193.162727,313.296647 192.024653,312.540584 190.854746,312.775361 L190.854746,312.775361 Z M210.12639,307.602299 L210.12639,307.602299 C208.996275,307.98431 208.391425,309.209928 208.773436,310.340043 C209.155446,311.470158 210.381064,312.075008 211.511179,311.692997 L211.511179,311.692997 C212.641294,311.310987 213.246144,310.085369 212.864134,308.955254 C212.482123,307.825139 211.256505,307.220289 210.12639,307.602299 L210.12639,307.602299 Z M228.570345,299.98994 L228.570345,299.98994 C227.499919,300.515205 227.058219,301.80847 227.583484,302.878896 C228.108749,303.949322 229.402014,304.391022 230.47244,303.865757 L230.47244,303.865757 C231.542866,303.340492 231.984566,302.047227 231.459301,300.976801 C230.934036,299.906375 229.640771,299.464675 228.570345,299.98994 L228.570345,299.98994 Z M245.872247,290.073579 L245.872247,290.073579 C244.877427,290.73016 244.606836,292.071176 245.263417,293.065996 C245.919998,294.060815 247.261015,294.331406 248.255835,293.674825 L248.255835,293.674825 C249.250654,293.018245 249.521245,291.677228 248.864664,290.682408 C248.208083,289.687589 246.867066,289.416998 245.872247,290.073579 L245.872247,290.073579 Z M261.773443,278.024324 L261.773443,278.024324 C260.870147,278.804263 260.770665,280.165176 261.550603,281.068472 C262.330542,281.971768 263.691455,282.07125 264.594751,281.291311 C265.498047,280.511373 265.597529,279.15046 264.817591,278.247164 C264.037652,277.343867 262.676739,277.244385 261.773443,278.024324 Z M276.01528,264.045119 L276.01528,264.045119 C275.219424,264.932499 275.29503,266.297391 276.182409,267.093247 C277.069788,267.889102 278.434681,267.813496 279.230537,266.926117 L279.230537,266.926117 C280.026392,266.038738 279.950786,264.673845 279.063407,263.87799 C278.176028,263.082134 276.811135,263.15774 276.01528,264.045119 L276.01528,264.045119 Z M288.366959,248.366763 L288.366959,248.366763 C287.690482,249.349645 287.937197,250.694641 288.920079,251.371118 C289.902961,252.047596 291.247957,251.80088 291.924434,250.817999 L291.924434,250.817999 C292.600912,249.835117 292.354196,248.490121 291.371315,247.813643 C290.388433,247.137166 289.043437,247.383881 288.366959,248.366763 L288.366959,248.366763 Z M298.62156,231.239949 L298.62156,231.239949 C298.076398,232.298437 298.494223,233.603641 299.552711,234.148802 C300.611199,234.693963 301.916402,234.276139 302.461563,233.217651 C303.006724,232.159163 302.5889,230.853959 301.530412,230.308798 C300.471924,229.763637 299.166721,230.181461 298.62156,231.239949 Z M306.600012,212.939249 L306.600012,212.939249 C306.194126,214.061405 306.775101,215.298961 307.897257,215.704847 C309.019414,216.110734 310.256969,215.529759 310.662856,214.407602 L310.662856,214.407602 C311.068742,213.285446 310.487767,212.04789 309.365611,211.642004 C308.243454,211.236118 307.005899,211.817092 306.600012,212.939249 L306.600012,212.939249 Z M312.155085,193.759128 L312.155085,193.759128 C311.896432,194.925056 312.632598,196.075067 313.798527,196.333721 C314.964455,196.592374 316.114467,195.856207 316.37312,194.690279 L316.37312,194.690279 C316.631773,193.52435 315.895607,192.374339 314.729678,192.115686 C313.563749,191.857032 312.413738,192.593199 312.155085,193.759128 L312.155085,193.759128 Z M315.191274,174.037824 L315.191274,174.037824 C315.083834,175.223649 315.963254,176.274179 317.149079,176.37764 C318.334904,176.481101 319.385434,175.60566 319.488895,174.419835 L319.488895,174.419835 C319.592356,173.23401 318.716915,172.183481 317.53109,172.08002 C316.345265,171.972579 315.294735,172.852 315.191274,174.037824 L315.191274,174.037824 Z" id="Shape" fill="#EE0000"></path>
                <path d="M185.415072,156.162906 C185.415072,143.982336 175.538504,134.105767 163.357933,134.105767 C155.108889,134.105767 147.930271,138.642144 144.145977,145.347228 C143.218806,145.188057 142.271737,145.084596 141.300793,145.084596 C132.152433,145.084596 124.735058,152.50197 124.735058,161.650331 C124.735058,170.798692 132.152433,178.216067 141.300793,178.216067 L185.415072,178.216067 C191.507347,178.216067 196.441652,173.277782 196.441652,167.189487 C196.441652,161.101191 191.503368,156.162906 185.415072,156.162906 Z" id="Path" fill="#C9C9C9"></path>
                <circle id="Oval" fill="#EE0000" cx="211.145085" cy="308.183274" r="10.2784758"></circle>
                <circle id="Oval" fill="#EE0000" cx="268.07662" cy="46.0841318" r="10.2784758"></circle>
                <circle id="Oval" fill="#EE0000" cx="35.9971527" cy="63.1950284" r="10.2784758"></circle>
            </g>
        </g>
    </g>
</svg>